solid OpenSCAD_Model
  facet normal 1 -0 0
    outer loop
      vertex -76.5 -40 3
      vertex -76.5 -38 0
      vertex -76.5 -38 3
    endloop
  endfacet
  facet normal 1 0 0
    outer loop
      vertex -76.5 -38 0
      vertex -76.5 -40 3
      vertex -76.5 -40 0
    endloop
  endfacet
  facet normal -1 0 0
    outer loop
      vertex -73.5 -40 0
      vertex -73.5 -38 3
      vertex -73.5 -38 0
    endloop
  endfacet
  facet normal -1 -0 0
    outer loop
      vertex -73.5 -38 3
      vertex -73.5 -40 0
      vertex -73.5 -40 3
    endloop
  endfacet
  facet normal 0 -1 0
    outer loop
      vertex -76.5 -38 0
      vertex -73.5 -38 3
      vertex -76.5 -38 3
    endloop
  endfacet
  facet normal 0 -1 -0
    outer loop
      vertex -73.5 -38 3
      vertex -76.5 -38 0
      vertex -73.5 -38 0
    endloop
  endfacet
  facet normal 0 1 -0
    outer loop
      vertex -73.5 -40 0
      vertex -76.5 -40 3
      vertex -73.5 -40 3
    endloop
  endfacet
  facet normal 0 1 0
    outer loop
      vertex -76.5 -40 3
      vertex -73.5 -40 0
      vertex -76.5 -40 0
    endloop
  endfacet
  facet normal 1 -0 0
    outer loop
      vertex -66.5 -40 3
      vertex -66.5 -38 0
      vertex -66.5 -38 3
    endloop
  endfacet
  facet normal 1 0 0
    outer loop
      vertex -66.5 -38 0
      vertex -66.5 -40 3
      vertex -66.5 -40 0
    endloop
  endfacet
  facet normal -1 0 0
    outer loop
      vertex -63.5 -40 0
      vertex -63.5 -38 3
      vertex -63.5 -38 0
    endloop
  endfacet
  facet normal -1 -0 0
    outer loop
      vertex -63.5 -38 3
      vertex -63.5 -40 0
      vertex -63.5 -40 3
    endloop
  endfacet
  facet normal 0 1 -0
    outer loop
      vertex -63.5 -40 0
      vertex -66.5 -40 3
      vertex -63.5 -40 3
    endloop
  endfacet
  facet normal 0 1 0
    outer loop
      vertex -66.5 -40 3
      vertex -63.5 -40 0
      vertex -66.5 -40 0
    endloop
  endfacet
  facet normal 0 -1 0
    outer loop
      vertex -66.5 -38 0
      vertex -63.5 -38 3
      vertex -66.5 -38 3
    endloop
  endfacet
  facet normal 0 -1 -0
    outer loop
      vertex -63.5 -38 3
      vertex -66.5 -38 0
      vertex -63.5 -38 0
    endloop
  endfacet
  facet normal 1 -0 0
    outer loop
      vertex -26.5 -40 3
      vertex -26.5 -38 0
      vertex -26.5 -38 3
    endloop
  endfacet
  facet normal 1 0 0
    outer loop
      vertex -26.5 -38 0
      vertex -26.5 -40 3
      vertex -26.5 -40 0
    endloop
  endfacet
  facet normal -1 0 0
    outer loop
      vertex -23.5 -40 0
      vertex -23.5 -38 3
      vertex -23.5 -38 0
    endloop
  endfacet
  facet normal -1 -0 0
    outer loop
      vertex -23.5 -38 3
      vertex -23.5 -40 0
      vertex -23.5 -40 3
    endloop
  endfacet
  facet normal 0 -1 0
    outer loop
      vertex -26.5 -38 0
      vertex -23.5 -38 3
      vertex -26.5 -38 3
    endloop
  endfacet
  facet normal 0 -1 -0
    outer loop
      vertex -23.5 -38 3
      vertex -26.5 -38 0
      vertex -23.5 -38 0
    endloop
  endfacet
  facet normal 0 1 -0
    outer loop
      vertex -23.5 -40 0
      vertex -26.5 -40 3
      vertex -23.5 -40 3
    endloop
  endfacet
  facet normal 0 1 0
    outer loop
      vertex -26.5 -40 3
      vertex -23.5 -40 0
      vertex -26.5 -40 0
    endloop
  endfacet
  facet normal 1 -0 0
    outer loop
      vertex -16.5 -40 3
      vertex -16.5 -38 0
      vertex -16.5 -38 3
    endloop
  endfacet
  facet normal 1 0 0
    outer loop
      vertex -16.5 -38 0
      vertex -16.5 -40 3
      vertex -16.5 -40 0
    endloop
  endfacet
  facet normal -1 0 0
    outer loop
      vertex -13.5 -40 0
      vertex -13.5 -38 3
      vertex -13.5 -38 0
    endloop
  endfacet
  facet normal -1 -0 0
    outer loop
      vertex -13.5 -38 3
      vertex -13.5 -40 0
      vertex -13.5 -40 3
    endloop
  endfacet
  facet normal 0 -1 0
    outer loop
      vertex -16.5 -38 0
      vertex -13.5 -38 3
      vertex -16.5 -38 3
    endloop
  endfacet
  facet normal 0 -1 -0
    outer loop
      vertex -13.5 -38 3
      vertex -16.5 -38 0
      vertex -13.5 -38 0
    endloop
  endfacet
  facet normal 0 1 -0
    outer loop
      vertex -13.5 -40 0
      vertex -16.5 -40 3
      vertex -13.5 -40 3
    endloop
  endfacet
  facet normal 0 1 0
    outer loop
      vertex -16.5 -40 3
      vertex -13.5 -40 0
      vertex -16.5 -40 0
    endloop
  endfacet
  facet normal 1 -0 0
    outer loop
      vertex 23.5 -40 3
      vertex 23.5 -38 0
      vertex 23.5 -38 3
    endloop
  endfacet
  facet normal 1 0 0
    outer loop
      vertex 23.5 -38 0
      vertex 23.5 -40 3
      vertex 23.5 -40 0
    endloop
  endfacet
  facet normal -1 0 0
    outer loop
      vertex 26.5 -40 0
      vertex 26.5 -38 3
      vertex 26.5 -38 0
    endloop
  endfacet
  facet normal -1 -0 0
    outer loop
      vertex 26.5 -38 3
      vertex 26.5 -40 0
      vertex 26.5 -40 3
    endloop
  endfacet
  facet normal 0 -1 0
    outer loop
      vertex 23.5 -38 0
      vertex 26.5 -38 3
      vertex 23.5 -38 3
    endloop
  endfacet
  facet normal 0 -1 -0
    outer loop
      vertex 26.5 -38 3
      vertex 23.5 -38 0
      vertex 26.5 -38 0
    endloop
  endfacet
  facet normal 0 1 -0
    outer loop
      vertex 26.5 -40 0
      vertex 23.5 -40 3
      vertex 26.5 -40 3
    endloop
  endfacet
  facet normal 0 1 0
    outer loop
      vertex 23.5 -40 3
      vertex 26.5 -40 0
      vertex 23.5 -40 0
    endloop
  endfacet
  facet normal 1 -0 0
    outer loop
      vertex 33.5 -40 3
      vertex 33.5 -38 0
      vertex 33.5 -38 3
    endloop
  endfacet
  facet normal 1 0 0
    outer loop
      vertex 33.5 -38 0
      vertex 33.5 -40 3
      vertex 33.5 -40 0
    endloop
  endfacet
  facet normal -1 0 0
    outer loop
      vertex 36.5 -40 0
      vertex 36.5 -38 3
      vertex 36.5 -38 0
    endloop
  endfacet
  facet normal -1 -0 0
    outer loop
      vertex 36.5 -38 3
      vertex 36.5 -40 0
      vertex 36.5 -40 3
    endloop
  endfacet
  facet normal 0 -1 0
    outer loop
      vertex 33.5 -38 0
      vertex 36.5 -38 3
      vertex 33.5 -38 3
    endloop
  endfacet
  facet normal 0 -1 -0
    outer loop
      vertex 36.5 -38 3
      vertex 33.5 -38 0
      vertex 36.5 -38 0
    endloop
  endfacet
  facet normal 0 1 -0
    outer loop
      vertex 36.5 -40 0
      vertex 33.5 -40 3
      vertex 36.5 -40 3
    endloop
  endfacet
  facet normal 0 1 0
    outer loop
      vertex 33.5 -40 3
      vertex 36.5 -40 0
      vertex 33.5 -40 0
    endloop
  endfacet
  facet normal -1 0 0
    outer loop
      vertex -95 -45 0
      vertex -95 45 3
      vertex -95 45 0
    endloop
  endfacet
  facet normal -1 -0 0
    outer loop
      vertex -95 45 3
      vertex -95 -45 0
      vertex -95 -45 3
    endloop
  endfacet
  facet normal -0 0 1
    outer loop
      vertex -92 24.3 3
      vertex -0.5 -24.3 3
      vertex -0.5 24.3 3
    endloop
  endfacet
  facet normal 0 0 1
    outer loop
      vertex -0.5 -24.3 3
      vertex -92 24.3 3
      vertex -92 -24.3 3
    endloop
  endfacet
  facet normal 0 0 1
    outer loop
      vertex 2 -28.8 3
      vertex -16.5 -38 3
      vertex -13.5 -38 3
    endloop
  endfacet
  facet normal 0 0 1
    outer loop
      vertex -16.5 -38 3
      vertex -23.5 -38 3
      vertex -16.5 -40 3
    endloop
  endfacet
  facet normal 0 0 1
    outer loop
      vertex 2 -28.8 3
      vertex -23.5 -38 3
      vertex -16.5 -38 3
    endloop
  endfacet
  facet normal 0 0 1
    outer loop
      vertex 2 -28.8 3
      vertex -26.5 -38 3
      vertex -23.5 -38 3
    endloop
  endfacet
  facet normal 0 0 1
    outer loop
      vertex -26.5 -38 3
      vertex -63.5 -38 3
      vertex -26.5 -40 3
    endloop
  endfacet
  facet normal 0 0 1
    outer loop
      vertex 2 -28.8 3
      vertex -63.5 -38 3
      vertex -26.5 -38 3
    endloop
  endfacet
  facet normal -0 0 1
    outer loop
      vertex -92 -28.8 3
      vertex -63.5 -38 3
      vertex 2 -28.8 3
    endloop
  endfacet
  facet normal 0 0 1
    outer loop
      vertex -66.5 -38 3
      vertex -73.5 -38 3
      vertex -66.5 -40 3
    endloop
  endfacet
  facet normal 0 0 1
    outer loop
      vertex -63.5 -38 3
      vertex -92 -28.8 3
      vertex -66.5 -38 3
    endloop
  endfacet
  facet normal 0 0 1
    outer loop
      vertex -66.5 -38 3
      vertex -92 -28.8 3
      vertex -73.5 -38 3
    endloop
  endfacet
  facet normal 0 0 1
    outer loop
      vertex -95 -45 3
      vertex -76.5 -38 3
      vertex -92 -28.8 3
    endloop
  endfacet
  facet normal 0 0 1
    outer loop
      vertex -73.5 -38 3
      vertex -92 -28.8 3
      vertex -76.5 -38 3
    endloop
  endfacet
  facet normal 0 0 1
    outer loop
      vertex 46.45 -29.7 3
      vertex 33.5 -38 3
      vertex 36.5 -38 3
    endloop
  endfacet
  facet normal 0 0 1
    outer loop
      vertex 33.5 -38 3
      vertex 26.5 -38 3
      vertex 33.5 -40 3
    endloop
  endfacet
  facet normal 0 0 1
    outer loop
      vertex 46.45 -29.7 3
      vertex 26.5 -38 3
      vertex 33.5 -38 3
    endloop
  endfacet
  facet normal -0 0 1
    outer loop
      vertex 13.55 -29.7 3
      vertex 26.5 -38 3
      vertex 46.45 -29.7 3
    endloop
  endfacet
  facet normal 0 0 1
    outer loop
      vertex 23.5 -38 3
      vertex 13.55 -29.7 3
      vertex 23.5 -40 3
    endloop
  endfacet
  facet normal 0 0 1
    outer loop
      vertex 26.5 -38 3
      vertex 13.55 -29.7 3
      vertex 23.5 -38 3
    endloop
  endfacet
  facet normal -0 0 1
    outer loop
      vertex 13.55 24.2 3
      vertex 46.45 -24.2 3
      vertex 46.45 24.2 3
    endloop
  endfacet
  facet normal 0 0 1
    outer loop
      vertex 46.45 -24.2 3
      vertex 13.55 24.2 3
      vertex 13.55 -24.2 3
    endloop
  endfacet
  facet normal 0 0 1
    outer loop
      vertex 88 11.5 3
      vertex 95 45 3
      vertex 88 28.5 3
    endloop
  endfacet
  facet normal 0 0 1
    outer loop
      vertex 95 45 3
      vertex 68 28.5 3
      vertex 88 28.5 3
    endloop
  endfacet
  facet normal 0 0 1
    outer loop
      vertex 46.45 24.2 3
      vertex 68 28.5 3
      vertex 46.45 29.7 3
    endloop
  endfacet
  facet normal 0 0 1
    outer loop
      vertex 95 45 3
      vertex 46.45 29.7 3
      vertex 68 28.5 3
    endloop
  endfacet
  facet normal 0 0 1
    outer loop
      vertex 95 45 3
      vertex 13.55 29.7 3
      vertex 46.45 29.7 3
    endloop
  endfacet
  facet normal -0 0 1
    outer loop
      vertex 2 28.8 3
      vertex 13.55 24.2 3
      vertex 13.55 29.7 3
    endloop
  endfacet
  facet normal 0 0 1
    outer loop
      vertex 13.55 24.2 3
      vertex 2 28.8 3
      vertex 13.55 -24.2 3
    endloop
  endfacet
  facet normal 0 0 1
    outer loop
      vertex 2 -28.8 3
      vertex 13.55 -24.2 3
      vertex 2 28.8 3
    endloop
  endfacet
  facet normal -0 0 1
    outer loop
      vertex -95 45 3
      vertex 13.55 29.7 3
      vertex 95 45 3
    endloop
  endfacet
  facet normal 0 0 1
    outer loop
      vertex 13.55 29.7 3
      vertex -95 45 3
      vertex 2 28.8 3
    endloop
  endfacet
  facet normal 0 0 1
    outer loop
      vertex -95 45 3
      vertex -92 24.3 3
      vertex -92 28.8 3
    endloop
  endfacet
  facet normal 0 0 1
    outer loop
      vertex -92 24.3 3
      vertex -95 45 3
      vertex -92 -24.3 3
    endloop
  endfacet
  facet normal 0 0 1
    outer loop
      vertex -95 -45 3
      vertex -92 -24.3 3
      vertex -95 45 3
    endloop
  endfacet
  facet normal 0 0 1
    outer loop
      vertex 2 28.8 3
      vertex -95 45 3
      vertex -92 28.8 3
    endloop
  endfacet
  facet normal 0 0 1
    outer loop
      vertex 95 45 3
      vertex 88 11.5 3
      vertex 95 -45 3
    endloop
  endfacet
  facet normal -0 0 1
    outer loop
      vertex 68 11.5 3
      vertex 95 -45 3
      vertex 88 11.5 3
    endloop
  endfacet
  facet normal 0 0 1
    outer loop
      vertex 68 28.5 3
      vertex 46.45 24.2 3
      vertex 68 11.5 3
    endloop
  endfacet
  facet normal 0 0 1
    outer loop
      vertex 46.45 -24.2 3
      vertex 68 11.5 3
      vertex 46.45 24.2 3
    endloop
  endfacet
  facet normal 0 0 1
    outer loop
      vertex 68 11.5 3
      vertex 46.45 -24.2 3
      vertex 95 -45 3
    endloop
  endfacet
  facet normal -0 0 1
    outer loop
      vertex 46.45 -29.7 3
      vertex 95 -45 3
      vertex 46.45 -24.2 3
    endloop
  endfacet
  facet normal 0 0 1
    outer loop
      vertex 36.5 -40 3
      vertex 46.45 -29.7 3
      vertex 36.5 -38 3
    endloop
  endfacet
  facet normal 0 0 1
    outer loop
      vertex 46.45 -29.7 3
      vertex 36.5 -40 3
      vertex 95 -45 3
    endloop
  endfacet
  facet normal -0 0 1
    outer loop
      vertex 33.5 -40 3
      vertex 95 -45 3
      vertex 36.5 -40 3
    endloop
  endfacet
  facet normal 0 0 1
    outer loop
      vertex 26.5 -40 3
      vertex 33.5 -40 3
      vertex 26.5 -38 3
    endloop
  endfacet
  facet normal -0 0 1
    outer loop
      vertex 26.5 -40 3
      vertex 95 -45 3
      vertex 33.5 -40 3
    endloop
  endfacet
  facet normal -0 0 1
    outer loop
      vertex 23.5 -40 3
      vertex 95 -45 3
      vertex 26.5 -40 3
    endloop
  endfacet
  facet normal 0 0 1
    outer loop
      vertex 13.55 -24.2 3
      vertex 2 -28.8 3
      vertex 13.55 -29.7 3
    endloop
  endfacet
  facet normal 0 0 1
    outer loop
      vertex 2 -28.8 3
      vertex 23.5 -40 3
      vertex 13.55 -29.7 3
    endloop
  endfacet
  facet normal 0 0 1
    outer loop
      vertex -13.5 -40 3
      vertex 2 -28.8 3
      vertex -13.5 -38 3
    endloop
  endfacet
  facet normal 0 0 1
    outer loop
      vertex 2 -28.8 3
      vertex -13.5 -40 3
      vertex 23.5 -40 3
    endloop
  endfacet
  facet normal 0 0 1
    outer loop
      vertex 23.5 -40 3
      vertex -13.5 -40 3
      vertex 95 -45 3
    endloop
  endfacet
  facet normal 0 0 1
    outer loop
      vertex -95 -45 3
      vertex -13.5 -40 3
      vertex -16.5 -40 3
    endloop
  endfacet
  facet normal 0 0 1
    outer loop
      vertex -23.5 -40 3
      vertex -16.5 -40 3
      vertex -23.5 -38 3
    endloop
  endfacet
  facet normal 0 0 1
    outer loop
      vertex -95 -45 3
      vertex -16.5 -40 3
      vertex -23.5 -40 3
    endloop
  endfacet
  facet normal 0 0 1
    outer loop
      vertex -95 -45 3
      vertex -23.5 -40 3
      vertex -26.5 -40 3
    endloop
  endfacet
  facet normal 0 0 1
    outer loop
      vertex -63.5 -40 3
      vertex -26.5 -40 3
      vertex -63.5 -38 3
    endloop
  endfacet
  facet normal 0 0 1
    outer loop
      vertex -95 -45 3
      vertex -26.5 -40 3
      vertex -63.5 -40 3
    endloop
  endfacet
  facet normal 0 0 1
    outer loop
      vertex -95 -45 3
      vertex -63.5 -40 3
      vertex -66.5 -40 3
    endloop
  endfacet
  facet normal 0 0 1
    outer loop
      vertex -73.5 -40 3
      vertex -66.5 -40 3
      vertex -73.5 -38 3
    endloop
  endfacet
  facet normal 0 0 1
    outer loop
      vertex -95 -45 3
      vertex -66.5 -40 3
      vertex -73.5 -40 3
    endloop
  endfacet
  facet normal 0 0 1
    outer loop
      vertex -95 -45 3
      vertex -73.5 -40 3
      vertex -76.5 -40 3
    endloop
  endfacet
  facet normal 0 0 1
    outer loop
      vertex -13.5 -40 3
      vertex -95 -45 3
      vertex 95 -45 3
    endloop
  endfacet
  facet normal 0 0 1
    outer loop
      vertex -76.5 -38 3
      vertex -95 -45 3
      vertex -76.5 -40 3
    endloop
  endfacet
  facet normal 0 0 1
    outer loop
      vertex -92 -24.3 3
      vertex -95 -45 3
      vertex -92 -28.8 3
    endloop
  endfacet
  facet normal 1 -0 0
    outer loop
      vertex 95 -45 3
      vertex 95 45 0
      vertex 95 45 3
    endloop
  endfacet
  facet normal 1 0 0
    outer loop
      vertex 95 45 0
      vertex 95 -45 3
      vertex 95 -45 0
    endloop
  endfacet
  facet normal 0 1 -0
    outer loop
      vertex 95 45 0
      vertex -95 45 3
      vertex 95 45 3
    endloop
  endfacet
  facet normal 0 1 0
    outer loop
      vertex -95 45 3
      vertex 95 45 0
      vertex -95 45 0
    endloop
  endfacet
  facet normal 0 0 -1
    outer loop
      vertex 36.5 -38 0
      vertex 95 -45 0
      vertex 36.5 -40 0
    endloop
  endfacet
  facet normal 0 0 -1
    outer loop
      vertex 95 -45 0
      vertex 33.5 -40 0
      vertex 36.5 -40 0
    endloop
  endfacet
  facet normal 0 0 -1
    outer loop
      vertex 33.5 -40 0
      vertex 26.5 -40 0
      vertex 33.5 -38 0
    endloop
  endfacet
  facet normal 0 0 -1
    outer loop
      vertex 95 -45 0
      vertex 26.5 -40 0
      vertex 33.5 -40 0
    endloop
  endfacet
  facet normal 0 0 -1
    outer loop
      vertex 95 -45 0
      vertex 23.5 -40 0
      vertex 26.5 -40 0
    endloop
  endfacet
  facet normal 0 0 -1
    outer loop
      vertex 23.5 -40 0
      vertex -13.5 -40 0
      vertex 23.5 -38 0
    endloop
  endfacet
  facet normal 0 0 -1
    outer loop
      vertex 95 -45 0
      vertex -13.5 -40 0
      vertex 23.5 -40 0
    endloop
  endfacet
  facet normal 0 0 -1
    outer loop
      vertex -95 -45 0
      vertex -13.5 -40 0
      vertex 95 -45 0
    endloop
  endfacet
  facet normal 0 0 -1
    outer loop
      vertex -16.5 -40 0
      vertex -23.5 -40 0
      vertex -16.5 -38 0
    endloop
  endfacet
  facet normal -0 0 -1
    outer loop
      vertex -13.5 -40 0
      vertex -95 -45 0
      vertex -16.5 -40 0
    endloop
  endfacet
  facet normal -0 0 -1
    outer loop
      vertex -16.5 -40 0
      vertex -95 -45 0
      vertex -23.5 -40 0
    endloop
  endfacet
  facet normal 0 0 -1
    outer loop
      vertex -26.5 -40 0
      vertex -63.5 -40 0
      vertex -26.5 -38 0
    endloop
  endfacet
  facet normal -0 0 -1
    outer loop
      vertex -23.5 -40 0
      vertex -95 -45 0
      vertex -26.5 -40 0
    endloop
  endfacet
  facet normal -0 0 -1
    outer loop
      vertex -26.5 -40 0
      vertex -95 -45 0
      vertex -63.5 -40 0
    endloop
  endfacet
  facet normal 0 0 -1
    outer loop
      vertex -66.5 -40 0
      vertex -73.5 -40 0
      vertex -66.5 -38 0
    endloop
  endfacet
  facet normal -0 0 -1
    outer loop
      vertex -63.5 -40 0
      vertex -95 -45 0
      vertex -66.5 -40 0
    endloop
  endfacet
  facet normal -0 0 -1
    outer loop
      vertex -66.5 -40 0
      vertex -95 -45 0
      vertex -73.5 -40 0
    endloop
  endfacet
  facet normal -0 0 -1
    outer loop
      vertex -76.5 -40 0
      vertex -95 -45 0
      vertex -76.5 -38 0
    endloop
  endfacet
  facet normal -0 0 -1
    outer loop
      vertex -73.5 -40 0
      vertex -95 -45 0
      vertex -76.5 -40 0
    endloop
  endfacet
  facet normal 0 0 -1
    outer loop
      vertex 95 -45 0
      vertex 36.5 -38 0
      vertex 95 45 0
    endloop
  endfacet
  facet normal 0 0 -1
    outer loop
      vertex 33.5 -38 0
      vertex 95 45 0
      vertex 36.5 -38 0
    endloop
  endfacet
  facet normal 0 0 -1
    outer loop
      vertex 26.5 -38 0
      vertex 33.5 -38 0
      vertex 26.5 -40 0
    endloop
  endfacet
  facet normal 0 0 -1
    outer loop
      vertex 33.5 -38 0
      vertex 26.5 -38 0
      vertex 95 45 0
    endloop
  endfacet
  facet normal 0 0 -1
    outer loop
      vertex 23.5 -38 0
      vertex 95 45 0
      vertex 26.5 -38 0
    endloop
  endfacet
  facet normal 0 0 -1
    outer loop
      vertex -13.5 -38 0
      vertex 23.5 -38 0
      vertex -13.5 -40 0
    endloop
  endfacet
  facet normal 0 0 -1
    outer loop
      vertex 23.5 -38 0
      vertex -13.5 -38 0
      vertex 95 45 0
    endloop
  endfacet
  facet normal 0 0 -1
    outer loop
      vertex -95 45 0
      vertex -13.5 -38 0
      vertex -16.5 -38 0
    endloop
  endfacet
  facet normal 0 0 -1
    outer loop
      vertex -23.5 -38 0
      vertex -16.5 -38 0
      vertex -23.5 -40 0
    endloop
  endfacet
  facet normal 0 0 -1
    outer loop
      vertex -95 45 0
      vertex -16.5 -38 0
      vertex -23.5 -38 0
    endloop
  endfacet
  facet normal 0 0 -1
    outer loop
      vertex -95 45 0
      vertex -23.5 -38 0
      vertex -26.5 -38 0
    endloop
  endfacet
  facet normal 0 0 -1
    outer loop
      vertex -63.5 -38 0
      vertex -26.5 -38 0
      vertex -63.5 -40 0
    endloop
  endfacet
  facet normal 0 0 -1
    outer loop
      vertex -95 45 0
      vertex -26.5 -38 0
      vertex -63.5 -38 0
    endloop
  endfacet
  facet normal 0 0 -1
    outer loop
      vertex -95 45 0
      vertex -63.5 -38 0
      vertex -66.5 -38 0
    endloop
  endfacet
  facet normal 0 0 -1
    outer loop
      vertex -73.5 -38 0
      vertex -66.5 -38 0
      vertex -73.5 -40 0
    endloop
  endfacet
  facet normal 0 0 -1
    outer loop
      vertex -95 45 0
      vertex -66.5 -38 0
      vertex -73.5 -38 0
    endloop
  endfacet
  facet normal 0 0 -1
    outer loop
      vertex -95 45 0
      vertex -73.5 -38 0
      vertex -76.5 -38 0
    endloop
  endfacet
  facet normal 0 0 -1
    outer loop
      vertex -95 45 0
      vertex -76.5 -38 0
      vertex -95 -45 0
    endloop
  endfacet
  facet normal 0 0 -1
    outer loop
      vertex -13.5 -38 0
      vertex -95 45 0
      vertex 95 45 0
    endloop
  endfacet
  facet normal 0 -1 0
    outer loop
      vertex -95 -45 0
      vertex 95 -45 3
      vertex -95 -45 3
    endloop
  endfacet
  facet normal 0 -1 -0
    outer loop
      vertex 95 -45 3
      vertex -95 -45 0
      vertex 95 -45 0
    endloop
  endfacet
  facet normal -1 0 0
    outer loop
      vertex -92 -24.3 3
      vertex -92 -26.3 8
      vertex -92 -24.3 8
    endloop
  endfacet
  facet normal -1 0 0
    outer loop
      vertex -92 -28.8 11.7
      vertex -92 -26.3 8
      vertex -92 -28.8 3
    endloop
  endfacet
  facet normal -1 0 0
    outer loop
      vertex -92 -28.8 3
      vertex -92 -26.3 8
      vertex -92 -24.3 3
    endloop
  endfacet
  facet normal -1 0 0
    outer loop
      vertex -92 -26.3 10.2
      vertex -92 -24.3 11.7
      vertex -92 -24.3 10.2
    endloop
  endfacet
  facet normal -1 0 0
    outer loop
      vertex -92 -26.3 10.2
      vertex -92 -28.8 11.7
      vertex -92 -24.3 11.7
    endloop
  endfacet
  facet normal -1 0 0
    outer loop
      vertex -92 -26.3 8
      vertex -92 -28.8 11.7
      vertex -92 -26.3 10.2
    endloop
  endfacet
  facet normal -0 0 1
    outer loop
      vertex -92 -24.3 11.7
      vertex 2 -28.8 11.7
      vertex 2 -24.3 11.7
    endloop
  endfacet
  facet normal 0 0 1
    outer loop
      vertex 2 -28.8 11.7
      vertex -92 -24.3 11.7
      vertex -92 -28.8 11.7
    endloop
  endfacet
  facet normal 1 0 0
    outer loop
      vertex 2 -24.3 11.7
      vertex 2 -28.8 11.7
      vertex 2 -24.3 8
    endloop
  endfacet
  facet normal 1 0 0
    outer loop
      vertex 2 24.3 8
      vertex 2 28.8 11.7
      vertex 2 24.3 11.7
    endloop
  endfacet
  facet normal 1 0 0
    outer loop
      vertex 2 28.8 11.7
      vertex 2 24.3 8
      vertex 2 28.8 3
    endloop
  endfacet
  facet normal 1 -0 0
    outer loop
      vertex 2 -24.3 8
      vertex 2 28.8 3
      vertex 2 24.3 8
    endloop
  endfacet
  facet normal 1 0 0
    outer loop
      vertex 2 -24.3 8
      vertex 2 -28.8 3
      vertex 2 28.8 3
    endloop
  endfacet
  facet normal 1 0 0
    outer loop
      vertex 2 -28.8 3
      vertex 2 -24.3 8
      vertex 2 -28.8 11.7
    endloop
  endfacet
  facet normal 0 -1 0
    outer loop
      vertex -92 -28.8 3
      vertex 2 -28.8 11.7
      vertex -92 -28.8 11.7
    endloop
  endfacet
  facet normal 0 -1 -0
    outer loop
      vertex 2 -28.8 11.7
      vertex -92 -28.8 3
      vertex 2 -28.8 3
    endloop
  endfacet
  facet normal 0 1 0
    outer loop
      vertex 2 -24.3 11.7
      vertex -0.5 -24.3 10.2
      vertex -92 -24.3 11.7
    endloop
  endfacet
  facet normal 0 1 -0
    outer loop
      vertex 2 -24.3 8
      vertex -0.5 -24.3 10.2
      vertex 2 -24.3 11.7
    endloop
  endfacet
  facet normal 0 1 0
    outer loop
      vertex -0.5 -24.3 10.2
      vertex 2 -24.3 8
      vertex -0.5 -24.3 8
    endloop
  endfacet
  facet normal 0 1 0
    outer loop
      vertex -92 -24.3 11.7
      vertex -0.5 -24.3 10.2
      vertex -92 -24.3 10.2
    endloop
  endfacet
  facet normal 0 1 -0
    outer loop
      vertex -0.5 -24.3 3
      vertex -92 -24.3 8
      vertex -0.5 -24.3 8
    endloop
  endfacet
  facet normal 0 1 0
    outer loop
      vertex -92 -24.3 8
      vertex -0.5 -24.3 3
      vertex -92 -24.3 3
    endloop
  endfacet
  facet normal -1 0 0
    outer loop
      vertex -92 28.8 3
      vertex -92 26.3 8
      vertex -92 28.8 11.7
    endloop
  endfacet
  facet normal -1 0 0
    outer loop
      vertex -92 24.3 3
      vertex -92 26.3 8
      vertex -92 28.8 3
    endloop
  endfacet
  facet normal -1 -0 0
    outer loop
      vertex -92 26.3 8
      vertex -92 24.3 3
      vertex -92 24.3 8
    endloop
  endfacet
  facet normal -1 0 0
    outer loop
      vertex -92 26.3 10.2
      vertex -92 28.8 11.7
      vertex -92 26.3 8
    endloop
  endfacet
  facet normal -1 0 0
    outer loop
      vertex -92 24.3 11.7
      vertex -92 26.3 10.2
      vertex -92 24.3 10.2
    endloop
  endfacet
  facet normal -1 0 0
    outer loop
      vertex -92 26.3 10.2
      vertex -92 24.3 11.7
      vertex -92 28.8 11.7
    endloop
  endfacet
  facet normal -0 0 1
    outer loop
      vertex -92 28.8 11.7
      vertex 2 24.3 11.7
      vertex 2 28.8 11.7
    endloop
  endfacet
  facet normal 0 0 1
    outer loop
      vertex 2 24.3 11.7
      vertex -92 28.8 11.7
      vertex -92 24.3 11.7
    endloop
  endfacet
  facet normal 0 1 -0
    outer loop
      vertex 2 28.8 3
      vertex -92 28.8 11.7
      vertex 2 28.8 11.7
    endloop
  endfacet
  facet normal 0 1 0
    outer loop
      vertex -92 28.8 11.7
      vertex 2 28.8 3
      vertex -92 28.8 3
    endloop
  endfacet
  facet normal 0 -1 0
    outer loop
      vertex -0.5 24.3 10.2
      vertex -92 24.3 11.7
      vertex -92 24.3 10.2
    endloop
  endfacet
  facet normal 0 -1 0
    outer loop
      vertex -92 24.3 11.7
      vertex -0.5 24.3 10.2
      vertex 2 24.3 11.7
    endloop
  endfacet
  facet normal 0 -1 0
    outer loop
      vertex 2 24.3 8
      vertex -0.5 24.3 10.2
      vertex -0.5 24.3 8
    endloop
  endfacet
  facet normal 0 -1 0
    outer loop
      vertex -0.5 24.3 10.2
      vertex 2 24.3 8
      vertex 2 24.3 11.7
    endloop
  endfacet
  facet normal 0 -1 0
    outer loop
      vertex -92 24.3 3
      vertex -0.5 24.3 8
      vertex -92 24.3 8
    endloop
  endfacet
  facet normal 0 -1 -0
    outer loop
      vertex -0.5 24.3 8
      vertex -92 24.3 3
      vertex -0.5 24.3 3
    endloop
  endfacet
  facet normal 0 0 -1
    outer loop
      vertex -92 -26.3 10.2
      vertex -0.5 -24.3 10.2
      vertex -0.5 -26.3 10.2
    endloop
  endfacet
  facet normal -0 0 -1
    outer loop
      vertex -0.5 -24.3 10.2
      vertex -92 -26.3 10.2
      vertex -92 -24.3 10.2
    endloop
  endfacet
  facet normal 0 0 -1
    outer loop
      vertex -92 24.3 10.2
      vertex -0.5 26.3 10.2
      vertex -0.5 24.3 10.2
    endloop
  endfacet
  facet normal -0 0 -1
    outer loop
      vertex -0.5 26.3 10.2
      vertex -92 24.3 10.2
      vertex -92 26.3 10.2
    endloop
  endfacet
  facet normal -1 0 0
    outer loop
      vertex -0.5 -26.3 8
      vertex -0.5 -24.3 10.2
      vertex -0.5 -24.3 8
    endloop
  endfacet
  facet normal -1 -0 0
    outer loop
      vertex -0.5 -24.3 10.2
      vertex -0.5 -26.3 8
      vertex -0.5 -26.3 10.2
    endloop
  endfacet
  facet normal -1 0 0
    outer loop
      vertex -0.5 24.3 8
      vertex -0.5 26.3 10.2
      vertex -0.5 26.3 8
    endloop
  endfacet
  facet normal -1 -0 0
    outer loop
      vertex -0.5 26.3 10.2
      vertex -0.5 24.3 8
      vertex -0.5 24.3 10.2
    endloop
  endfacet
  facet normal 0 -1 0
    outer loop
      vertex -92 26.3 8
      vertex -0.5 26.3 10.2
      vertex -92 26.3 10.2
    endloop
  endfacet
  facet normal 0 -1 -0
    outer loop
      vertex -0.5 26.3 10.2
      vertex -92 26.3 8
      vertex -0.5 26.3 8
    endloop
  endfacet
  facet normal -0 0 1
    outer loop
      vertex -92 26.3 8
      vertex -0.5 24.3 8
      vertex -0.5 26.3 8
    endloop
  endfacet
  facet normal 0 0 1
    outer loop
      vertex -0.5 24.3 8
      vertex -92 26.3 8
      vertex -92 24.3 8
    endloop
  endfacet
  facet normal -0 0 1
    outer loop
      vertex -92 -24.3 8
      vertex -0.5 -26.3 8
      vertex -0.5 -24.3 8
    endloop
  endfacet
  facet normal 0 0 1
    outer loop
      vertex -0.5 -26.3 8
      vertex -92 -24.3 8
      vertex -92 -26.3 8
    endloop
  endfacet
  facet normal 0 1 -0
    outer loop
      vertex -0.5 -26.3 8
      vertex -92 -26.3 10.2
      vertex -0.5 -26.3 10.2
    endloop
  endfacet
  facet normal 0 1 0
    outer loop
      vertex -92 -26.3 10.2
      vertex -0.5 -26.3 8
      vertex -92 -26.3 8
    endloop
  endfacet
  facet normal -1 0 0
    outer loop
      vertex -0.5 -24.3 3
      vertex -0.5 24.3 8
      vertex -0.5 24.3 3
    endloop
  endfacet
  facet normal -1 -0 0
    outer loop
      vertex -0.5 24.3 8
      vertex -0.5 -24.3 3
      vertex -0.5 -24.3 8
    endloop
  endfacet
  facet normal -0 0 1
    outer loop
      vertex -0.5 24.3 8
      vertex 2 -24.3 8
      vertex 2 24.3 8
    endloop
  endfacet
  facet normal 0 0 1
    outer loop
      vertex 2 -24.3 8
      vertex -0.5 24.3 8
      vertex -0.5 -24.3 8
    endloop
  endfacet
  facet normal -1 0 0
    outer loop
      vertex 13.55 -29.7 3
      vertex 13.55 -24.2 36.59
      vertex 13.55 -24.2 3
    endloop
  endfacet
  facet normal -1 -0 0
    outer loop
      vertex 13.55 -24.2 36.59
      vertex 13.55 -29.7 3
      vertex 13.55 -29.7 36.59
    endloop
  endfacet
  facet normal 0 0 1
    outer loop
      vertex 15.75 -24.2 36.59
      vertex 13.55 -24.2 36.59
      vertex 15.75 -27.5 36.59
    endloop
  endfacet
  facet normal 0 0 1
    outer loop
      vertex 44.25 -27.5 36.59
      vertex 46.45 -24.2 36.59
      vertex 44.25 -24.2 36.59
    endloop
  endfacet
  facet normal 0 0 1
    outer loop
      vertex 46.45 -24.2 36.59
      vertex 44.25 -27.5 36.59
      vertex 46.45 -29.7 36.59
    endloop
  endfacet
  facet normal -0 0 1
    outer loop
      vertex 15.75 -27.5 36.59
      vertex 46.45 -29.7 36.59
      vertex 44.25 -27.5 36.59
    endloop
  endfacet
  facet normal 0 0 1
    outer loop
      vertex 15.75 -27.5 36.59
      vertex 13.55 -29.7 36.59
      vertex 46.45 -29.7 36.59
    endloop
  endfacet
  facet normal 0 0 1
    outer loop
      vertex 13.55 -29.7 36.59
      vertex 15.75 -27.5 36.59
      vertex 13.55 -24.2 36.59
    endloop
  endfacet
  facet normal 1 -0 0
    outer loop
      vertex 46.45 -29.7 36.59
      vertex 46.45 -24.2 3
      vertex 46.45 -24.2 36.59
    endloop
  endfacet
  facet normal 1 0 0
    outer loop
      vertex 46.45 -24.2 3
      vertex 46.45 -29.7 36.59
      vertex 46.45 -29.7 3
    endloop
  endfacet
  facet normal 0 -1 0
    outer loop
      vertex 13.55 -29.7 3
      vertex 46.45 -29.7 36.59
      vertex 13.55 -29.7 36.59
    endloop
  endfacet
  facet normal 0 -1 -0
    outer loop
      vertex 46.45 -29.7 36.59
      vertex 13.55 -29.7 3
      vertex 46.45 -29.7 3
    endloop
  endfacet
  facet normal 0 1 0
    outer loop
      vertex 46.45 -24.2 36.59
      vertex 44.25 -24.2 32.99
      vertex 44.25 -24.2 36.59
    endloop
  endfacet
  facet normal 0 1 0
    outer loop
      vertex 44.25 -24.2 32.99
      vertex 46.45 -24.2 3
      vertex 15.75 -24.2 32.99
    endloop
  endfacet
  facet normal 0 1 -0
    outer loop
      vertex 46.45 -24.2 3
      vertex 44.25 -24.2 32.99
      vertex 46.45 -24.2 36.59
    endloop
  endfacet
  facet normal 0 1 -0
    outer loop
      vertex 15.75 -24.2 32.99
      vertex 13.55 -24.2 36.59
      vertex 15.75 -24.2 36.59
    endloop
  endfacet
  facet normal 0 1 0
    outer loop
      vertex 15.75 -24.2 32.99
      vertex 13.55 -24.2 3
      vertex 13.55 -24.2 36.59
    endloop
  endfacet
  facet normal 0 1 0
    outer loop
      vertex 13.55 -24.2 3
      vertex 15.75 -24.2 32.99
      vertex 46.45 -24.2 3
    endloop
  endfacet
  facet normal 1 -0 0
    outer loop
      vertex 15.75 -27.5 36.59
      vertex 15.75 -24.2 32.99
      vertex 15.75 -24.2 36.59
    endloop
  endfacet
  facet normal 1 0 0
    outer loop
      vertex 15.75 -24.2 32.99
      vertex 15.75 -27.5 36.59
      vertex 15.75 -27.5 32.99
    endloop
  endfacet
  facet normal -1 0 0
    outer loop
      vertex 44.25 -27.5 32.99
      vertex 44.25 -24.2 36.59
      vertex 44.25 -24.2 32.99
    endloop
  endfacet
  facet normal -1 -0 0
    outer loop
      vertex 44.25 -24.2 36.59
      vertex 44.25 -27.5 32.99
      vertex 44.25 -27.5 36.59
    endloop
  endfacet
  facet normal -0 0 1
    outer loop
      vertex 15.75 -24.2 32.99
      vertex 44.25 -27.5 32.99
      vertex 44.25 -24.2 32.99
    endloop
  endfacet
  facet normal 0 0 1
    outer loop
      vertex 44.25 -27.5 32.99
      vertex 15.75 -24.2 32.99
      vertex 15.75 -27.5 32.99
    endloop
  endfacet
  facet normal 0 1 -0
    outer loop
      vertex 44.25 -27.5 32.99
      vertex 15.75 -27.5 36.59
      vertex 44.25 -27.5 36.59
    endloop
  endfacet
  facet normal 0 1 0
    outer loop
      vertex 15.75 -27.5 36.59
      vertex 44.25 -27.5 32.99
      vertex 15.75 -27.5 32.99
    endloop
  endfacet
  facet normal -1 0 0
    outer loop
      vertex 13.55 24.2 3
      vertex 13.55 29.7 36.59
      vertex 13.55 29.7 3
    endloop
  endfacet
  facet normal -1 -0 0
    outer loop
      vertex 13.55 29.7 36.59
      vertex 13.55 24.2 3
      vertex 13.55 24.2 36.59
    endloop
  endfacet
  facet normal 0 0 1
    outer loop
      vertex 46.45 29.7 36.59
      vertex 44.25 27.5 36.59
      vertex 46.45 24.2 36.59
    endloop
  endfacet
  facet normal -0 0 1
    outer loop
      vertex 36 29.7 36.59
      vertex 44.25 27.5 36.59
      vertex 46.45 29.7 36.59
    endloop
  endfacet
  facet normal 0 0 1
    outer loop
      vertex 44.25 27.5 36.59
      vertex 36 29.7 36.59
      vertex 36 27.5 36.59
    endloop
  endfacet
  facet normal 0 0 1
    outer loop
      vertex 46.45 24.2 36.59
      vertex 44.25 27.5 36.59
      vertex 44.25 24.2 36.59
    endloop
  endfacet
  facet normal 0 0 1
    outer loop
      vertex 24 29.7 36.59
      vertex 15.75 27.5 36.59
      vertex 24 27.5 36.59
    endloop
  endfacet
  facet normal -0 0 1
    outer loop
      vertex 13.55 29.7 36.59
      vertex 15.75 27.5 36.59
      vertex 24 29.7 36.59
    endloop
  endfacet
  facet normal 0 0 1
    outer loop
      vertex 13.55 24.2 36.59
      vertex 15.75 27.5 36.59
      vertex 13.55 29.7 36.59
    endloop
  endfacet
  facet normal 0 0 1
    outer loop
      vertex 15.75 27.5 36.59
      vertex 13.55 24.2 36.59
      vertex 15.75 24.2 36.59
    endloop
  endfacet
  facet normal 1 -0 0
    outer loop
      vertex 46.45 24.2 36.59
      vertex 46.45 29.7 3
      vertex 46.45 29.7 36.59
    endloop
  endfacet
  facet normal 1 0 0
    outer loop
      vertex 46.45 29.7 3
      vertex 46.45 24.2 36.59
      vertex 46.45 24.2 3
    endloop
  endfacet
  facet normal 0 1 0
    outer loop
      vertex 46.45 29.7 36.59
      vertex 36 29.7 30.99
      vertex 36 29.7 36.59
    endloop
  endfacet
  facet normal 0 1 0
    outer loop
      vertex 36 29.7 30.99
      vertex 46.45 29.7 3
      vertex 24 29.7 30.99
    endloop
  endfacet
  facet normal 0 1 -0
    outer loop
      vertex 46.45 29.7 3
      vertex 36 29.7 30.99
      vertex 46.45 29.7 36.59
    endloop
  endfacet
  facet normal 0 1 -0
    outer loop
      vertex 24 29.7 30.99
      vertex 13.55 29.7 36.59
      vertex 24 29.7 36.59
    endloop
  endfacet
  facet normal 0 1 0
    outer loop
      vertex 13.55 29.7 3
      vertex 24 29.7 30.99
      vertex 46.45 29.7 3
    endloop
  endfacet
  facet normal 0 1 0
    outer loop
      vertex 24 29.7 30.99
      vertex 13.55 29.7 3
      vertex 13.55 29.7 36.59
    endloop
  endfacet
  facet normal 0 -1 0
    outer loop
      vertex 13.55 24.2 36.59
      vertex 15.75 24.2 32.99
      vertex 15.75 24.2 36.59
    endloop
  endfacet
  facet normal 0 -1 0
    outer loop
      vertex 15.75 24.2 32.99
      vertex 24 24.2 30.99
      vertex 24 24.2 32.99
    endloop
  endfacet
  facet normal 0 -1 -0
    outer loop
      vertex 24 24.2 30.99
      vertex 13.55 24.2 3
      vertex 36 24.2 30.99
    endloop
  endfacet
  facet normal 0 -1 -0
    outer loop
      vertex 15.75 24.2 32.99
      vertex 13.55 24.2 3
      vertex 24 24.2 30.99
    endloop
  endfacet
  facet normal 0 -1 0
    outer loop
      vertex 13.55 24.2 3
      vertex 15.75 24.2 32.99
      vertex 13.55 24.2 36.59
    endloop
  endfacet
  facet normal 0 -1 0
    outer loop
      vertex 36 24.2 32.99
      vertex 36 24.2 30.99
      vertex 44.25 24.2 32.99
    endloop
  endfacet
  facet normal 0 -1 0
    outer loop
      vertex 44.25 24.2 32.99
      vertex 46.45 24.2 36.59
      vertex 44.25 24.2 36.59
    endloop
  endfacet
  facet normal 0 -1 0
    outer loop
      vertex 46.45 24.2 3
      vertex 36 24.2 30.99
      vertex 13.55 24.2 3
    endloop
  endfacet
  facet normal 0 -1 0
    outer loop
      vertex 44.25 24.2 32.99
      vertex 46.45 24.2 3
      vertex 46.45 24.2 36.59
    endloop
  endfacet
  facet normal 0 -1 0
    outer loop
      vertex 36 24.2 30.99
      vertex 46.45 24.2 3
      vertex 44.25 24.2 32.99
    endloop
  endfacet
  facet normal 1 -0 0
    outer loop
      vertex 15.75 24.2 36.59
      vertex 15.75 27.5 32.99
      vertex 15.75 27.5 36.59
    endloop
  endfacet
  facet normal 1 0 0
    outer loop
      vertex 15.75 27.5 32.99
      vertex 15.75 24.2 36.59
      vertex 15.75 24.2 32.99
    endloop
  endfacet
  facet normal -1 0 0
    outer loop
      vertex 44.25 24.2 32.99
      vertex 44.25 27.5 36.59
      vertex 44.25 27.5 32.99
    endloop
  endfacet
  facet normal -1 -0 0
    outer loop
      vertex 44.25 27.5 36.59
      vertex 44.25 24.2 32.99
      vertex 44.25 24.2 36.59
    endloop
  endfacet
  facet normal 0 -1 0
    outer loop
      vertex 36 27.5 32.99
      vertex 44.25 27.5 36.59
      vertex 36 27.5 36.59
    endloop
  endfacet
  facet normal 0 -1 -0
    outer loop
      vertex 44.25 27.5 36.59
      vertex 36 27.5 32.99
      vertex 44.25 27.5 32.99
    endloop
  endfacet
  facet normal 0 -1 0
    outer loop
      vertex 15.75 27.5 32.99
      vertex 24 27.5 36.59
      vertex 15.75 27.5 36.59
    endloop
  endfacet
  facet normal 0 -1 -0
    outer loop
      vertex 24 27.5 36.59
      vertex 15.75 27.5 32.99
      vertex 24 27.5 32.99
    endloop
  endfacet
  facet normal -0 0 1
    outer loop
      vertex 36 27.5 32.99
      vertex 44.25 24.2 32.99
      vertex 44.25 27.5 32.99
    endloop
  endfacet
  facet normal 0 0 1
    outer loop
      vertex 44.25 24.2 32.99
      vertex 36 27.5 32.99
      vertex 36 24.2 32.99
    endloop
  endfacet
  facet normal -0 0 1
    outer loop
      vertex 15.75 27.5 32.99
      vertex 24 24.2 32.99
      vertex 24 27.5 32.99
    endloop
  endfacet
  facet normal 0 0 1
    outer loop
      vertex 24 24.2 32.99
      vertex 15.75 27.5 32.99
      vertex 15.75 24.2 32.99
    endloop
  endfacet
  facet normal 1 0 0
    outer loop
      vertex 24 27.5 32.99
      vertex 24 29.7 36.59
      vertex 24 27.5 36.59
    endloop
  endfacet
  facet normal 1 0 0
    outer loop
      vertex 24 29.7 36.59
      vertex 24 27.5 32.99
      vertex 24 29.7 30.99
    endloop
  endfacet
  facet normal 1 0 0
    outer loop
      vertex 24 24.2 30.99
      vertex 24 27.5 32.99
      vertex 24 24.2 32.99
    endloop
  endfacet
  facet normal 1 0 0
    outer loop
      vertex 24 27.5 32.99
      vertex 24 24.2 30.99
      vertex 24 29.7 30.99
    endloop
  endfacet
  facet normal -1 0 0
    outer loop
      vertex 36 29.7 30.99
      vertex 36 27.5 32.99
      vertex 36 29.7 36.59
    endloop
  endfacet
  facet normal -1 0 0
    outer loop
      vertex 36 24.2 30.99
      vertex 36 27.5 32.99
      vertex 36 29.7 30.99
    endloop
  endfacet
  facet normal -1 -0 0
    outer loop
      vertex 36 27.5 32.99
      vertex 36 24.2 30.99
      vertex 36 24.2 32.99
    endloop
  endfacet
  facet normal -1 -0 0
    outer loop
      vertex 36 29.7 36.59
      vertex 36 27.5 32.99
      vertex 36 27.5 36.59
    endloop
  endfacet
  facet normal -0 0 1
    outer loop
      vertex 24 29.7 30.99
      vertex 36 24.2 30.99
      vertex 36 29.7 30.99
    endloop
  endfacet
  facet normal 0 0 1
    outer loop
      vertex 36 24.2 30.99
      vertex 24 29.7 30.99
      vertex 24 24.2 30.99
    endloop
  endfacet
  facet normal -1 0 0
    outer loop
      vertex 68 25.0229 9.59
      vertex 68 28.5 12.49
      vertex 68 28.5 3
    endloop
  endfacet
  facet normal -1 -0 0
    outer loop
      vertex 68 28.5 12.49
      vertex 68 25.7504 11.7329
      vertex 68 25.8 12.49
    endloop
  endfacet
  facet normal -1 0 0
    outer loop
      vertex 68 28.5 12.49
      vertex 68 25.6024 10.9888
      vertex 68 25.7504 11.7329
    endloop
  endfacet
  facet normal -1 0 0
    outer loop
      vertex 68 28.5 12.49
      vertex 68 25.3585 10.2704
      vertex 68 25.6024 10.9888
    endloop
  endfacet
  facet normal -1 0 0
    outer loop
      vertex 68 28.5 12.49
      vertex 68 25.0229 9.59
      vertex 68 25.3585 10.2704
    endloop
  endfacet
  facet normal -1 0 0
    outer loop
      vertex 68 28.5 3
      vertex 68 24.6014 8.95918
      vertex 68 25.0229 9.59
    endloop
  endfacet
  facet normal -1 0 0
    outer loop
      vertex 68 28.5 3
      vertex 68 24.1012 8.38878
      vertex 68 24.6014 8.95918
    endloop
  endfacet
  facet normal -1 0 0
    outer loop
      vertex 68 28.5 3
      vertex 68 23.5308 7.88855
      vertex 68 24.1012 8.38878
    endloop
  endfacet
  facet normal -1 0 0
    outer loop
      vertex 68 28.5 3
      vertex 68 22.9 7.46705
      vertex 68 23.5308 7.88855
    endloop
  endfacet
  facet normal -1 0 0
    outer loop
      vertex 68 28.5 3
      vertex 68 22.2196 7.1315
      vertex 68 22.9 7.46705
    endloop
  endfacet
  facet normal -1 0 0
    outer loop
      vertex 68 28.5 3
      vertex 68 21.5012 6.88763
      vertex 68 22.2196 7.1315
    endloop
  endfacet
  facet normal -1 0 0
    outer loop
      vertex 68 28.5 3
      vertex 68 20.7571 6.73962
      vertex 68 21.5012 6.88763
    endloop
  endfacet
  facet normal -1 0 0
    outer loop
      vertex 68 28.5 3
      vertex 68 20 6.69
      vertex 68 20.7571 6.73962
    endloop
  endfacet
  facet normal -1 0 0
    outer loop
      vertex 68 11.5 3
      vertex 68 20 6.69
      vertex 68 28.5 3
    endloop
  endfacet
  facet normal -1 -0 0
    outer loop
      vertex 68 20 6.69
      vertex 68 11.5 3
      vertex 68 19.2429 6.73962
    endloop
  endfacet
  facet normal -1 -0 0
    outer loop
      vertex 68 19.2429 6.73962
      vertex 68 11.5 3
      vertex 68 18.4988 6.88763
    endloop
  endfacet
  facet normal -1 -0 0
    outer loop
      vertex 68 18.4988 6.88763
      vertex 68 11.5 3
      vertex 68 17.7804 7.1315
    endloop
  endfacet
  facet normal -1 0 0
    outer loop
      vertex 68 11.5 3
      vertex 68 17.1 7.46705
      vertex 68 17.7804 7.1315
    endloop
  endfacet
  facet normal -1 0 0
    outer loop
      vertex 68 11.5 3
      vertex 68 16.4692 7.88855
      vertex 68 17.1 7.46705
    endloop
  endfacet
  facet normal -1 0 0
    outer loop
      vertex 68 11.5 3
      vertex 68 15.8988 8.38878
      vertex 68 16.4692 7.88855
    endloop
  endfacet
  facet normal -1 0 0
    outer loop
      vertex 68 11.5 3
      vertex 68 15.3986 8.95918
      vertex 68 15.8988 8.38878
    endloop
  endfacet
  facet normal -1 0 0
    outer loop
      vertex 68 11.5 3
      vertex 68 14.9771 9.59
      vertex 68 15.3986 8.95918
    endloop
  endfacet
  facet normal -1 0 0
    outer loop
      vertex 68 11.5 12.49
      vertex 68 14.9771 9.59
      vertex 68 11.5 3
    endloop
  endfacet
  facet normal -1 0 0
    outer loop
      vertex 68 14.9771 9.59
      vertex 68 11.5 12.49
      vertex 68 14.6415 10.2704
    endloop
  endfacet
  facet normal -1 0 0
    outer loop
      vertex 68 14.6415 10.2704
      vertex 68 11.5 12.49
      vertex 68 14.3976 10.9888
    endloop
  endfacet
  facet normal -1 0 0
    outer loop
      vertex 68 14.3976 10.9888
      vertex 68 11.5 12.49
      vertex 68 14.2496 11.7329
    endloop
  endfacet
  facet normal -1 0 0
    outer loop
      vertex 68 14.2496 11.7329
      vertex 68 11.5 12.49
      vertex 68 14.2 12.49
    endloop
  endfacet
  facet normal -0 0 1
    outer loop
      vertex 68 14.2 12.49
      vertex 88 11.5 12.49
      vertex 88 14.2 12.49
    endloop
  endfacet
  facet normal 0 0 1
    outer loop
      vertex 88 11.5 12.49
      vertex 68 14.2 12.49
      vertex 68 11.5 12.49
    endloop
  endfacet
  facet normal -0 0 1
    outer loop
      vertex 68 28.5 12.49
      vertex 88 25.8 12.49
      vertex 88 28.5 12.49
    endloop
  endfacet
  facet normal 0 0 1
    outer loop
      vertex 88 25.8 12.49
      vertex 68 28.5 12.49
      vertex 68 25.8 12.49
    endloop
  endfacet
  facet normal 1 0 0
    outer loop
      vertex 88 25.7504 11.7329
      vertex 88 28.5 12.49
      vertex 88 25.8 12.49
    endloop
  endfacet
  facet normal 1 0 0
    outer loop
      vertex 88 25.6024 10.9888
      vertex 88 28.5 12.49
      vertex 88 25.7504 11.7329
    endloop
  endfacet
  facet normal 1 0 0
    outer loop
      vertex 88 25.3585 10.2704
      vertex 88 28.5 12.49
      vertex 88 25.6024 10.9888
    endloop
  endfacet
  facet normal 1 0 0
    outer loop
      vertex 88 25.0229 9.59
      vertex 88 28.5 12.49
      vertex 88 25.3585 10.2704
    endloop
  endfacet
  facet normal 1 0 0
    outer loop
      vertex 88 28.5 12.49
      vertex 88 25.0229 9.59
      vertex 88 28.5 3
    endloop
  endfacet
  facet normal 1 -0 0
    outer loop
      vertex 88 24.6014 8.95918
      vertex 88 28.5 3
      vertex 88 25.0229 9.59
    endloop
  endfacet
  facet normal 1 -0 0
    outer loop
      vertex 88 24.1012 8.38878
      vertex 88 28.5 3
      vertex 88 24.6014 8.95918
    endloop
  endfacet
  facet normal 1 -0 0
    outer loop
      vertex 88 23.5308 7.88855
      vertex 88 28.5 3
      vertex 88 24.1012 8.38878
    endloop
  endfacet
  facet normal 1 -0 0
    outer loop
      vertex 88 22.9 7.46705
      vertex 88 28.5 3
      vertex 88 23.5308 7.88855
    endloop
  endfacet
  facet normal 1 -0 0
    outer loop
      vertex 88 22.2196 7.1315
      vertex 88 28.5 3
      vertex 88 22.9 7.46705
    endloop
  endfacet
  facet normal 1 -0 0
    outer loop
      vertex 88 21.5012 6.88763
      vertex 88 28.5 3
      vertex 88 22.2196 7.1315
    endloop
  endfacet
  facet normal 1 -0 0
    outer loop
      vertex 88 20.7571 6.73962
      vertex 88 28.5 3
      vertex 88 21.5012 6.88763
    endloop
  endfacet
  facet normal 1 -0 0
    outer loop
      vertex 88 20 6.69
      vertex 88 28.5 3
      vertex 88 20.7571 6.73962
    endloop
  endfacet
  facet normal 1 0 0
    outer loop
      vertex 88 11.5 3
      vertex 88 20 6.69
      vertex 88 19.2429 6.73962
    endloop
  endfacet
  facet normal 1 0 0
    outer loop
      vertex 88 11.5 3
      vertex 88 19.2429 6.73962
      vertex 88 18.4988 6.88763
    endloop
  endfacet
  facet normal 1 0 0
    outer loop
      vertex 88 11.5 3
      vertex 88 18.4988 6.88763
      vertex 88 17.7804 7.1315
    endloop
  endfacet
  facet normal 1 -0 0
    outer loop
      vertex 88 11.5 12.49
      vertex 88 14.2496 11.7329
      vertex 88 14.2 12.49
    endloop
  endfacet
  facet normal 1 0 0
    outer loop
      vertex 88 11.5 12.49
      vertex 88 14.3976 10.9888
      vertex 88 14.2496 11.7329
    endloop
  endfacet
  facet normal 1 0 0
    outer loop
      vertex 88 11.5 12.49
      vertex 88 14.6415 10.2704
      vertex 88 14.3976 10.9888
    endloop
  endfacet
  facet normal 1 0 0
    outer loop
      vertex 88 11.5 12.49
      vertex 88 14.9771 9.59
      vertex 88 14.6415 10.2704
    endloop
  endfacet
  facet normal 1 0 0
    outer loop
      vertex 88 11.5 3
      vertex 88 14.9771 9.59
      vertex 88 11.5 12.49
    endloop
  endfacet
  facet normal 1 0 0
    outer loop
      vertex 88 14.9771 9.59
      vertex 88 11.5 3
      vertex 88 15.3986 8.95918
    endloop
  endfacet
  facet normal 1 0 0
    outer loop
      vertex 88 20 6.69
      vertex 88 11.5 3
      vertex 88 28.5 3
    endloop
  endfacet
  facet normal 1 0 0
    outer loop
      vertex 88 17.1 7.46705
      vertex 88 11.5 3
      vertex 88 17.7804 7.1315
    endloop
  endfacet
  facet normal 1 0 0
    outer loop
      vertex 88 16.4692 7.88855
      vertex 88 11.5 3
      vertex 88 17.1 7.46705
    endloop
  endfacet
  facet normal 1 0 0
    outer loop
      vertex 88 15.8988 8.38878
      vertex 88 11.5 3
      vertex 88 16.4692 7.88855
    endloop
  endfacet
  facet normal 1 0 0
    outer loop
      vertex 88 15.3986 8.95918
      vertex 88 11.5 3
      vertex 88 15.8988 8.38878
    endloop
  endfacet
  facet normal 0 -1 0
    outer loop
      vertex 68 11.5 12.49
      vertex 76 11.5 5.69
      vertex 88 11.5 12.49
    endloop
  endfacet
  facet normal 0 -1 0
    outer loop
      vertex 68 11.5 3
      vertex 76 11.5 5.69
      vertex 68 11.5 12.49
    endloop
  endfacet
  facet normal 0 -1 -0
    outer loop
      vertex 76 11.5 3.89
      vertex 68 11.5 3
      vertex 80 11.5 3.89
    endloop
  endfacet
  facet normal 0 -1 -0
    outer loop
      vertex 76 11.5 5.69
      vertex 68 11.5 3
      vertex 76 11.5 3.89
    endloop
  endfacet
  facet normal 0 -1 0
    outer loop
      vertex 80 11.5 5.69
      vertex 88 11.5 12.49
      vertex 76 11.5 5.69
    endloop
  endfacet
  facet normal 0 -1 0
    outer loop
      vertex 88 11.5 3
      vertex 80 11.5 5.69
      vertex 80 11.5 3.89
    endloop
  endfacet
  facet normal 0 -1 0
    outer loop
      vertex 80 11.5 5.69
      vertex 88 11.5 3
      vertex 88 11.5 12.49
    endloop
  endfacet
  facet normal 0 -1 0
    outer loop
      vertex 88 11.5 3
      vertex 80 11.5 3.89
      vertex 68 11.5 3
    endloop
  endfacet
  facet normal 0 1 0
    outer loop
      vertex 88 28.5 12.49
      vertex 80 28.5 5.69
      vertex 68 28.5 12.49
    endloop
  endfacet
  facet normal 0 1 -0
    outer loop
      vertex 88 28.5 3
      vertex 80 28.5 5.69
      vertex 88 28.5 12.49
    endloop
  endfacet
  facet normal 0 1 0
    outer loop
      vertex 80 28.5 3.89
      vertex 88 28.5 3
      vertex 76 28.5 3.89
    endloop
  endfacet
  facet normal 0 1 0
    outer loop
      vertex 80 28.5 5.69
      vertex 88 28.5 3
      vertex 80 28.5 3.89
    endloop
  endfacet
  facet normal 0 1 -0
    outer loop
      vertex 76 28.5 5.69
      vertex 68 28.5 12.49
      vertex 80 28.5 5.69
    endloop
  endfacet
  facet normal 0 1 0
    outer loop
      vertex 68 28.5 3
      vertex 76 28.5 5.69
      vertex 76 28.5 3.89
    endloop
  endfacet
  facet normal 0 1 0
    outer loop
      vertex 76 28.5 5.69
      vertex 68 28.5 3
      vertex 68 28.5 12.49
    endloop
  endfacet
  facet normal 0 1 0
    outer loop
      vertex 68 28.5 3
      vertex 76 28.5 3.89
      vertex 88 28.5 3
    endloop
  endfacet
  facet normal 0 -0.555582 0.831462
    outer loop
      vertex 68 23.5308 7.88855
      vertex 88 22.9 7.46705
      vertex 88 23.5308 7.88855
    endloop
  endfacet
  facet normal 0 -0.555582 0.831462
    outer loop
      vertex 88 22.9 7.46705
      vertex 68 23.5308 7.88855
      vertex 68 22.9 7.46705
    endloop
  endfacet
  facet normal 0 -0.980788 0.195077
    outer loop
      vertex 68 25.6024 10.9888
      vertex 88 25.7504 11.7329
      vertex 68 25.7504 11.7329
    endloop
  endfacet
  facet normal 0 -0.980788 0.195077
    outer loop
      vertex 88 25.7504 11.7329
      vertex 68 25.6024 10.9888
      vertex 88 25.6024 10.9888
    endloop
  endfacet
  facet normal -0 0.0653993 0.997859
    outer loop
      vertex 68 20 6.69
      vertex 88 19.2429 6.73962
      vertex 88 20 6.69
    endloop
  endfacet
  facet normal 0 0.0653993 0.997859
    outer loop
      vertex 88 19.2429 6.73962
      vertex 68 20 6.69
      vertex 68 19.2429 6.73962
    endloop
  endfacet
  facet normal 0 0.896839 0.442356
    outer loop
      vertex 88 14.9771 9.59
      vertex 68 14.6415 10.2704
      vertex 88 14.6415 10.2704
    endloop
  endfacet
  facet normal 0 0.896839 0.442356
    outer loop
      vertex 68 14.6415 10.2704
      vertex 88 14.9771 9.59
      vertex 68 14.9771 9.59
    endloop
  endfacet
  facet normal 0 -0.195089 0.980785
    outer loop
      vertex 68 21.5012 6.88763
      vertex 88 20.7571 6.73962
      vertex 88 21.5012 6.88763
    endloop
  endfacet
  facet normal 0 -0.195089 0.980785
    outer loop
      vertex 88 20.7571 6.73962
      vertex 68 21.5012 6.88763
      vertex 68 20.7571 6.73962
    endloop
  endfacet
  facet normal 0 -0.997861 0.065373
    outer loop
      vertex 68 25.7504 11.7329
      vertex 88 25.8 12.49
      vertex 68 25.8 12.49
    endloop
  endfacet
  facet normal 0 -0.997861 0.065373
    outer loop
      vertex 88 25.8 12.49
      vertex 68 25.7504 11.7329
      vertex 88 25.7504 11.7329
    endloop
  endfacet
  facet normal 0 -0.946916 0.321482
    outer loop
      vertex 68 25.3585 10.2704
      vertex 88 25.6024 10.9888
      vertex 68 25.6024 10.9888
    endloop
  endfacet
  facet normal 0 -0.946916 0.321482
    outer loop
      vertex 88 25.6024 10.9888
      vertex 68 25.3585 10.2704
      vertex 88 25.3585 10.2704
    endloop
  endfacet
  facet normal 0 -0.83147 0.55557
    outer loop
      vertex 68 24.6014 8.95918
      vertex 88 25.0229 9.59
      vertex 68 25.0229 9.59
    endloop
  endfacet
  facet normal 0 -0.83147 0.55557
    outer loop
      vertex 88 25.0229 9.59
      vertex 68 24.6014 8.95918
      vertex 88 24.6014 8.95918
    endloop
  endfacet
  facet normal -0 0.195089 0.980785
    outer loop
      vertex 68 19.2429 6.73962
      vertex 88 18.4988 6.88763
      vertex 88 19.2429 6.73962
    endloop
  endfacet
  facet normal 0 0.195089 0.980785
    outer loop
      vertex 88 18.4988 6.88763
      vertex 68 19.2429 6.73962
      vertex 68 18.4988 6.88763
    endloop
  endfacet
  facet normal 0 0.946916 0.321482
    outer loop
      vertex 88 14.6415 10.2704
      vertex 68 14.3976 10.9888
      vertex 88 14.3976 10.9888
    endloop
  endfacet
  facet normal 0 0.946916 0.321482
    outer loop
      vertex 68 14.3976 10.9888
      vertex 88 14.6415 10.2704
      vertex 68 14.6415 10.2704
    endloop
  endfacet
  facet normal 0 -0.321447 0.946928
    outer loop
      vertex 68 22.2196 7.1315
      vertex 88 21.5012 6.88763
      vertex 88 22.2196 7.1315
    endloop
  endfacet
  facet normal 0 -0.321447 0.946928
    outer loop
      vertex 88 21.5012 6.88763
      vertex 68 22.2196 7.1315
      vertex 68 21.5012 6.88763
    endloop
  endfacet
  facet normal 0 -0.751858 0.659325
    outer loop
      vertex 68 24.1012 8.38878
      vertex 88 24.6014 8.95918
      vertex 68 24.6014 8.95918
    endloop
  endfacet
  facet normal 0 -0.751858 0.659325
    outer loop
      vertex 88 24.6014 8.95918
      vertex 68 24.1012 8.38878
      vertex 88 24.1012 8.38878
    endloop
  endfacet
  facet normal 0 -0.896839 0.442356
    outer loop
      vertex 68 25.0229 9.59
      vertex 88 25.3585 10.2704
      vertex 68 25.3585 10.2704
    endloop
  endfacet
  facet normal 0 -0.896839 0.442356
    outer loop
      vertex 88 25.3585 10.2704
      vertex 68 25.0229 9.59
      vertex 88 25.0229 9.59
    endloop
  endfacet
  facet normal 0 -0.0653993 0.997859
    outer loop
      vertex 68 20.7571 6.73962
      vertex 88 20 6.69
      vertex 88 20.7571 6.73962
    endloop
  endfacet
  facet normal 0 -0.0653993 0.997859
    outer loop
      vertex 88 20 6.69
      vertex 68 20.7571 6.73962
      vertex 68 20 6.69
    endloop
  endfacet
  facet normal 0 0.980788 0.195077
    outer loop
      vertex 88 14.3976 10.9888
      vertex 68 14.2496 11.7329
      vertex 88 14.2496 11.7329
    endloop
  endfacet
  facet normal 0 0.980788 0.195077
    outer loop
      vertex 68 14.2496 11.7329
      vertex 88 14.3976 10.9888
      vertex 68 14.3976 10.9888
    endloop
  endfacet
  facet normal 0 -0.442303 0.896865
    outer loop
      vertex 68 22.9 7.46705
      vertex 88 22.2196 7.1315
      vertex 88 22.9 7.46705
    endloop
  endfacet
  facet normal 0 -0.442303 0.896865
    outer loop
      vertex 88 22.2196 7.1315
      vertex 68 22.9 7.46705
      vertex 68 22.2196 7.1315
    endloop
  endfacet
  facet normal 0 -0.659348 0.751838
    outer loop
      vertex 68 24.1012 8.38878
      vertex 88 23.5308 7.88855
      vertex 88 24.1012 8.38878
    endloop
  endfacet
  facet normal 0 -0.659348 0.751838
    outer loop
      vertex 88 23.5308 7.88855
      vertex 68 24.1012 8.38878
      vertex 68 23.5308 7.88855
    endloop
  endfacet
  facet normal -0 0.321447 0.946928
    outer loop
      vertex 68 18.4988 6.88763
      vertex 88 17.7804 7.1315
      vertex 88 18.4988 6.88763
    endloop
  endfacet
  facet normal 0 0.321447 0.946928
    outer loop
      vertex 88 17.7804 7.1315
      vertex 68 18.4988 6.88763
      vertex 68 17.7804 7.1315
    endloop
  endfacet
  facet normal 0 0.83147 0.55557
    outer loop
      vertex 88 15.3986 8.95918
      vertex 68 14.9771 9.59
      vertex 88 14.9771 9.59
    endloop
  endfacet
  facet normal 0 0.83147 0.55557
    outer loop
      vertex 68 14.9771 9.59
      vertex 88 15.3986 8.95918
      vertex 68 15.3986 8.95918
    endloop
  endfacet
  facet normal -0 0.659348 0.751838
    outer loop
      vertex 68 16.4692 7.88855
      vertex 88 15.8988 8.38878
      vertex 88 16.4692 7.88855
    endloop
  endfacet
  facet normal 0 0.659348 0.751838
    outer loop
      vertex 88 15.8988 8.38878
      vertex 68 16.4692 7.88855
      vertex 68 15.8988 8.38878
    endloop
  endfacet
  facet normal -0 0.555582 0.831462
    outer loop
      vertex 68 17.1 7.46705
      vertex 88 16.4692 7.88855
      vertex 88 17.1 7.46705
    endloop
  endfacet
  facet normal 0 0.555582 0.831462
    outer loop
      vertex 88 16.4692 7.88855
      vertex 68 17.1 7.46705
      vertex 68 16.4692 7.88855
    endloop
  endfacet
  facet normal -0 0.442303 0.896865
    outer loop
      vertex 68 17.7804 7.1315
      vertex 88 17.1 7.46705
      vertex 88 17.7804 7.1315
    endloop
  endfacet
  facet normal 0 0.442303 0.896865
    outer loop
      vertex 88 17.1 7.46705
      vertex 68 17.7804 7.1315
      vertex 68 17.1 7.46705
    endloop
  endfacet
  facet normal 0 0.751858 0.659325
    outer loop
      vertex 88 15.8988 8.38878
      vertex 68 15.3986 8.95918
      vertex 88 15.3986 8.95918
    endloop
  endfacet
  facet normal 0 0.751858 0.659325
    outer loop
      vertex 68 15.3986 8.95918
      vertex 88 15.8988 8.38878
      vertex 68 15.8988 8.38878
    endloop
  endfacet
  facet normal 0 0.997861 0.065373
    outer loop
      vertex 88 14.2496 11.7329
      vertex 68 14.2 12.49
      vertex 88 14.2 12.49
    endloop
  endfacet
  facet normal 0 0.997861 0.065373
    outer loop
      vertex 68 14.2 12.49
      vertex 88 14.2496 11.7329
      vertex 68 14.2496 11.7329
    endloop
  endfacet
  facet normal 1 -0 0
    outer loop
      vertex 76 11.5 5.69
      vertex 76 28.5 3.89
      vertex 76 28.5 5.69
    endloop
  endfacet
  facet normal 1 0 0
    outer loop
      vertex 76 28.5 3.89
      vertex 76 11.5 5.69
      vertex 76 11.5 3.89
    endloop
  endfacet
  facet normal 0 0 -1
    outer loop
      vertex 76 11.5 5.69
      vertex 80 28.5 5.69
      vertex 80 11.5 5.69
    endloop
  endfacet
  facet normal -0 0 -1
    outer loop
      vertex 80 28.5 5.69
      vertex 76 11.5 5.69
      vertex 76 28.5 5.69
    endloop
  endfacet
  facet normal -1 0 0
    outer loop
      vertex 80 11.5 3.89
      vertex 80 28.5 5.69
      vertex 80 28.5 3.89
    endloop
  endfacet
  facet normal -1 -0 0
    outer loop
      vertex 80 28.5 5.69
      vertex 80 11.5 3.89
      vertex 80 11.5 5.69
    endloop
  endfacet
  facet normal -0 0 1
    outer loop
      vertex 76 28.5 3.89
      vertex 80 11.5 3.89
      vertex 80 28.5 3.89
    endloop
  endfacet
  facet normal 0 0 1
    outer loop
      vertex 80 11.5 3.89
      vertex 76 28.5 3.89
      vertex 76 11.5 3.89
    endloop
  endfacet
endsolid OpenSCAD_Model
