solid OpenSCAD_Model
  facet normal 0.997858 0.0654097 0
    outer loop
      vertex 5 0 3
      vertex 4.95722 0.652631 0
      vertex 4.95722 0.652631 3
    endloop
  endfacet
  facet normal 0.997858 0.0654097 0
    outer loop
      vertex 4.95722 0.652631 0
      vertex 5 0 3
      vertex 5 0 0
    endloop
  endfacet
  facet normal -0.997858 0.0654097 0
    outer loop
      vertex -5 0 0
      vertex -4.95722 0.652631 3
      vertex -4.95722 0.652631 0
    endloop
  endfacet
  facet normal -0.997858 0.0654097 0
    outer loop
      vertex -4.95722 0.652631 3
      vertex -5 0 0
      vertex -5 0 3
    endloop
  endfacet
  facet normal 0.0654097 0.997858 -0
    outer loop
      vertex 0.652631 4.95722 0
      vertex 0 5 3
      vertex 0.652631 4.95722 3
    endloop
  endfacet
  facet normal 0.0654097 0.997858 0
    outer loop
      vertex 0 5 3
      vertex 0.652631 4.95722 0
      vertex 0 5 0
    endloop
  endfacet
  facet normal -0.0654097 -0.997858 0
    outer loop
      vertex -0.652631 -4.95722 0
      vertex 0 -5 3
      vertex -0.652631 -4.95722 3
    endloop
  endfacet
  facet normal -0.0654097 -0.997858 -0
    outer loop
      vertex 0 -5 3
      vertex -0.652631 -4.95722 0
      vertex 0 -5 0
    endloop
  endfacet
  facet normal -0.75183 -0.659357 0
    outer loop
      vertex -3.53553 -3.53553 0
      vertex -3.96677 -3.04381 3
      vertex -3.96677 -3.04381 0
    endloop
  endfacet
  facet normal -0.75183 -0.659357 0
    outer loop
      vertex -3.96677 -3.04381 3
      vertex -3.53553 -3.53553 0
      vertex -3.53553 -3.53553 3
    endloop
  endfacet
  facet normal 0.75183 0.659357 0
    outer loop
      vertex 3.96677 3.04381 3
      vertex 3.53553 3.53553 0
      vertex 3.53553 3.53553 3
    endloop
  endfacet
  facet normal 0.75183 0.659357 0
    outer loop
      vertex 3.53553 3.53553 0
      vertex 3.96677 3.04381 3
      vertex 3.96677 3.04381 0
    endloop
  endfacet
  facet normal -0.659357 0.75183 0
    outer loop
      vertex -3.04381 3.96677 0
      vertex -3.53553 3.53553 3
      vertex -3.04381 3.96677 3
    endloop
  endfacet
  facet normal -0.659357 0.75183 0
    outer loop
      vertex -3.53553 3.53553 3
      vertex -3.04381 3.96677 0
      vertex -3.53553 3.53553 0
    endloop
  endfacet
  facet normal -0.321438 0.946931 0
    outer loop
      vertex -1.2941 4.82963 0
      vertex -1.91342 4.6194 3
      vertex -1.2941 4.82963 3
    endloop
  endfacet
  facet normal -0.321438 0.946931 0
    outer loop
      vertex -1.91342 4.6194 3
      vertex -1.2941 4.82963 0
      vertex -1.91342 4.6194 0
    endloop
  endfacet
  facet normal 0.896872 0.44229 0
    outer loop
      vertex 4.6194 1.91342 3
      vertex 4.33013 2.5 0
      vertex 4.33013 2.5 3
    endloop
  endfacet
  facet normal 0.896872 0.44229 0
    outer loop
      vertex 4.33013 2.5 0
      vertex 4.6194 1.91342 3
      vertex 4.6194 1.91342 0
    endloop
  endfacet
  facet normal 0.980787 0.195081 0
    outer loop
      vertex 4.95722 0.652631 3
      vertex 4.82963 1.2941 0
      vertex 4.82963 1.2941 3
    endloop
  endfacet
  facet normal 0.980787 0.195081 0
    outer loop
      vertex 4.82963 1.2941 0
      vertex 4.95722 0.652631 3
      vertex 4.95722 0.652631 0
    endloop
  endfacet
  facet normal 0.831471 0.555568 0
    outer loop
      vertex 4.33013 2.5 3
      vertex 3.96677 3.04381 0
      vertex 3.96677 3.04381 3
    endloop
  endfacet
  facet normal 0.831471 0.555568 0
    outer loop
      vertex 3.96677 3.04381 0
      vertex 4.33013 2.5 3
      vertex 4.33013 2.5 0
    endloop
  endfacet
  facet normal 0.44229 0.896872 -0
    outer loop
      vertex 2.5 4.33013 0
      vertex 1.91342 4.6194 3
      vertex 2.5 4.33013 3
    endloop
  endfacet
  facet normal 0.44229 0.896872 0
    outer loop
      vertex 1.91342 4.6194 3
      vertex 2.5 4.33013 0
      vertex 1.91342 4.6194 0
    endloop
  endfacet
  facet normal 0.321438 0.946931 -0
    outer loop
      vertex 1.91342 4.6194 0
      vertex 1.2941 4.82963 3
      vertex 1.91342 4.6194 3
    endloop
  endfacet
  facet normal 0.321438 0.946931 0
    outer loop
      vertex 1.2941 4.82963 3
      vertex 1.91342 4.6194 0
      vertex 1.2941 4.82963 0
    endloop
  endfacet
  facet normal 0.555568 0.831471 -0
    outer loop
      vertex 3.04381 3.96677 0
      vertex 2.5 4.33013 3
      vertex 3.04381 3.96677 3
    endloop
  endfacet
  facet normal 0.555568 0.831471 0
    outer loop
      vertex 2.5 4.33013 3
      vertex 3.04381 3.96677 0
      vertex 2.5 4.33013 0
    endloop
  endfacet
  facet normal -0.896872 0.44229 0
    outer loop
      vertex -4.6194 1.91342 0
      vertex -4.33013 2.5 3
      vertex -4.33013 2.5 0
    endloop
  endfacet
  facet normal -0.896872 0.44229 0
    outer loop
      vertex -4.33013 2.5 3
      vertex -4.6194 1.91342 0
      vertex -4.6194 1.91342 3
    endloop
  endfacet
  facet normal -0.946931 0.321438 0
    outer loop
      vertex -4.82963 1.2941 0
      vertex -4.6194 1.91342 3
      vertex -4.6194 1.91342 0
    endloop
  endfacet
  facet normal -0.946931 0.321438 0
    outer loop
      vertex -4.6194 1.91342 3
      vertex -4.82963 1.2941 0
      vertex -4.82963 1.2941 3
    endloop
  endfacet
  facet normal -0.44229 0.896872 0
    outer loop
      vertex -1.91342 4.6194 0
      vertex -2.5 4.33013 3
      vertex -1.91342 4.6194 3
    endloop
  endfacet
  facet normal -0.44229 0.896872 0
    outer loop
      vertex -2.5 4.33013 3
      vertex -1.91342 4.6194 0
      vertex -2.5 4.33013 0
    endloop
  endfacet
  facet normal -0.195081 0.980787 0
    outer loop
      vertex -0.652631 4.95722 0
      vertex -1.2941 4.82963 3
      vertex -0.652631 4.95722 3
    endloop
  endfacet
  facet normal -0.195081 0.980787 0
    outer loop
      vertex -1.2941 4.82963 3
      vertex -0.652631 4.95722 0
      vertex -1.2941 4.82963 0
    endloop
  endfacet
  facet normal 0.44229 -0.896872 0
    outer loop
      vertex 1.91342 -4.6194 0
      vertex 2.5 -4.33013 3
      vertex 1.91342 -4.6194 3
    endloop
  endfacet
  facet normal 0.44229 -0.896872 0
    outer loop
      vertex 2.5 -4.33013 3
      vertex 1.91342 -4.6194 0
      vertex 2.5 -4.33013 0
    endloop
  endfacet
  facet normal -0.321438 -0.946931 0
    outer loop
      vertex -1.91342 -4.6194 0
      vertex -1.2941 -4.82963 3
      vertex -1.91342 -4.6194 3
    endloop
  endfacet
  facet normal -0.321438 -0.946931 -0
    outer loop
      vertex -1.2941 -4.82963 3
      vertex -1.91342 -4.6194 0
      vertex -1.2941 -4.82963 0
    endloop
  endfacet
  facet normal -0.896872 -0.44229 0
    outer loop
      vertex -4.33013 -2.5 0
      vertex -4.6194 -1.91342 3
      vertex -4.6194 -1.91342 0
    endloop
  endfacet
  facet normal -0.896872 -0.44229 0
    outer loop
      vertex -4.6194 -1.91342 3
      vertex -4.33013 -2.5 0
      vertex -4.33013 -2.5 3
    endloop
  endfacet
  facet normal 0 0 -1
    outer loop
      vertex 2.25 0 0
      vertex 5 0 0
      vertex 4.95722 -0.652631 0
    endloop
  endfacet
  facet normal 0 0 -1
    outer loop
      vertex 2.23075 -0.293683 0
      vertex 4.95722 -0.652631 0
      vertex 4.82963 -1.2941 0
    endloop
  endfacet
  facet normal 0 0 -1
    outer loop
      vertex 5 0 0
      vertex 2.25 0 0
      vertex 4.95722 0.652631 0
    endloop
  endfacet
  facet normal 0 0 -1
    outer loop
      vertex 2.17333 -0.582342 0
      vertex 4.82963 -1.2941 0
      vertex 4.6194 -1.91342 0
    endloop
  endfacet
  facet normal 0 0 -1
    outer loop
      vertex 2.23075 0.293683 0
      vertex 4.95722 0.652631 0
      vertex 2.25 0 0
    endloop
  endfacet
  facet normal 0 0 -1
    outer loop
      vertex 2.07873 -0.861037 0
      vertex 4.6194 -1.91342 0
      vertex 4.33013 -2.5 0
    endloop
  endfacet
  facet normal -0 0 -1
    outer loop
      vertex 4.95722 0.652631 0
      vertex 2.23075 0.293683 0
      vertex 4.82963 1.2941 0
    endloop
  endfacet
  facet normal 0 0 -1
    outer loop
      vertex 1.94856 -1.125 0
      vertex 4.33013 -2.5 0
      vertex 3.96677 -3.04381 0
    endloop
  endfacet
  facet normal 0 0 -1
    outer loop
      vertex 2.17333 0.582342 0
      vertex 4.82963 1.2941 0
      vertex 2.23075 0.293683 0
    endloop
  endfacet
  facet normal 0 0 -1
    outer loop
      vertex 1.78504 -1.36971 0
      vertex 3.96677 -3.04381 0
      vertex 3.53553 -3.53553 0
    endloop
  endfacet
  facet normal -0 0 -1
    outer loop
      vertex 4.82963 1.2941 0
      vertex 2.17333 0.582342 0
      vertex 4.6194 1.91342 0
    endloop
  endfacet
  facet normal 0 0 -1
    outer loop
      vertex 1.59099 -1.59099 0
      vertex 3.53553 -3.53553 0
      vertex 3.04381 -3.96677 0
    endloop
  endfacet
  facet normal 0 0 -1
    outer loop
      vertex 2.07873 0.861037 0
      vertex 4.6194 1.91342 0
      vertex 2.17333 0.582342 0
    endloop
  endfacet
  facet normal 0 0 -1
    outer loop
      vertex 1.36971 -1.78504 0
      vertex 3.04381 -3.96677 0
      vertex 2.5 -4.33013 0
    endloop
  endfacet
  facet normal -0 0 -1
    outer loop
      vertex 4.6194 1.91342 0
      vertex 2.07873 0.861037 0
      vertex 4.33013 2.5 0
    endloop
  endfacet
  facet normal 0 0 -1
    outer loop
      vertex 1.94856 1.125 0
      vertex 4.33013 2.5 0
      vertex 2.07873 0.861037 0
    endloop
  endfacet
  facet normal 0 0 -1
    outer loop
      vertex 4.95722 -0.652631 0
      vertex 2.23075 -0.293683 0
      vertex 2.25 0 0
    endloop
  endfacet
  facet normal 0 0 -1
    outer loop
      vertex 4.82963 -1.2941 0
      vertex 2.17333 -0.582342 0
      vertex 2.23075 -0.293683 0
    endloop
  endfacet
  facet normal 0 0 -1
    outer loop
      vertex 4.6194 -1.91342 0
      vertex 2.07873 -0.861037 0
      vertex 2.17333 -0.582342 0
    endloop
  endfacet
  facet normal 0 0 -1
    outer loop
      vertex 4.33013 -2.5 0
      vertex 1.94856 -1.125 0
      vertex 2.07873 -0.861037 0
    endloop
  endfacet
  facet normal 0 0 -1
    outer loop
      vertex 1.125 -1.94856 0
      vertex 2.5 -4.33013 0
      vertex 1.91342 -4.6194 0
    endloop
  endfacet
  facet normal 0 0 -1
    outer loop
      vertex 3.96677 -3.04381 0
      vertex 1.78504 -1.36971 0
      vertex 1.94856 -1.125 0
    endloop
  endfacet
  facet normal 0 0 -1
    outer loop
      vertex 3.53553 -3.53553 0
      vertex 1.59099 -1.59099 0
      vertex 1.78504 -1.36971 0
    endloop
  endfacet
  facet normal 0 0 -1
    outer loop
      vertex 3.04381 -3.96677 0
      vertex 1.36971 -1.78504 0
      vertex 1.59099 -1.59099 0
    endloop
  endfacet
  facet normal 0 0 -1
    outer loop
      vertex 0.861037 -2.07873 0
      vertex 1.91342 -4.6194 0
      vertex 1.2941 -4.82963 0
    endloop
  endfacet
  facet normal 0 0 -1
    outer loop
      vertex 2.5 -4.33013 0
      vertex 1.125 -1.94856 0
      vertex 1.36971 -1.78504 0
    endloop
  endfacet
  facet normal 0 0 -1
    outer loop
      vertex 1.91342 -4.6194 0
      vertex 0.861037 -2.07873 0
      vertex 1.125 -1.94856 0
    endloop
  endfacet
  facet normal 0 0 -1
    outer loop
      vertex 0.582342 -2.17333 0
      vertex 1.2941 -4.82963 0
      vertex 0.652631 -4.95722 0
    endloop
  endfacet
  facet normal 0 0 -1
    outer loop
      vertex 1.2941 -4.82963 0
      vertex 0.582342 -2.17333 0
      vertex 0.861037 -2.07873 0
    endloop
  endfacet
  facet normal 0 0 -1
    outer loop
      vertex 0.652631 -4.95722 0
      vertex 0.293683 -2.23075 0
      vertex 0.582342 -2.17333 0
    endloop
  endfacet
  facet normal 0 0 -1
    outer loop
      vertex 0 -5 0
      vertex 0.293683 -2.23075 0
      vertex 0.652631 -4.95722 0
    endloop
  endfacet
  facet normal 0 0 -1
    outer loop
      vertex 0 -5 0
      vertex 0 -2.25 0
      vertex 0.293683 -2.23075 0
    endloop
  endfacet
  facet normal 0 0 -1
    outer loop
      vertex 0 -5 0
      vertex -0.293683 -2.23075 0
      vertex 0 -2.25 0
    endloop
  endfacet
  facet normal 0 0 -1
    outer loop
      vertex -0.652631 -4.95722 0
      vertex -0.293683 -2.23075 0
      vertex 0 -5 0
    endloop
  endfacet
  facet normal -0 0 -1
    outer loop
      vertex -0.293683 -2.23075 0
      vertex -0.652631 -4.95722 0
      vertex -0.582342 -2.17333 0
    endloop
  endfacet
  facet normal 0 0 -1
    outer loop
      vertex -1.2941 -4.82963 0
      vertex -0.582342 -2.17333 0
      vertex -0.652631 -4.95722 0
    endloop
  endfacet
  facet normal -0 0 -1
    outer loop
      vertex -0.582342 -2.17333 0
      vertex -1.2941 -4.82963 0
      vertex -0.861037 -2.07873 0
    endloop
  endfacet
  facet normal 0 0 -1
    outer loop
      vertex -1.91342 -4.6194 0
      vertex -0.861037 -2.07873 0
      vertex -1.2941 -4.82963 0
    endloop
  endfacet
  facet normal -0 0 -1
    outer loop
      vertex -0.861037 -2.07873 0
      vertex -1.91342 -4.6194 0
      vertex -1.125 -1.94856 0
    endloop
  endfacet
  facet normal 0 0 -1
    outer loop
      vertex -2.5 -4.33013 0
      vertex -1.125 -1.94856 0
      vertex -1.91342 -4.6194 0
    endloop
  endfacet
  facet normal -0 0 -1
    outer loop
      vertex -1.125 -1.94856 0
      vertex -2.5 -4.33013 0
      vertex -1.36971 -1.78504 0
    endloop
  endfacet
  facet normal 0 0 -1
    outer loop
      vertex -3.04381 -3.96677 0
      vertex -1.36971 -1.78504 0
      vertex -2.5 -4.33013 0
    endloop
  endfacet
  facet normal -0 0 -1
    outer loop
      vertex -1.36971 -1.78504 0
      vertex -3.04381 -3.96677 0
      vertex -1.59099 -1.59099 0
    endloop
  endfacet
  facet normal 0 0 -1
    outer loop
      vertex -3.53553 -3.53553 0
      vertex -1.59099 -1.59099 0
      vertex -3.04381 -3.96677 0
    endloop
  endfacet
  facet normal -0 0 -1
    outer loop
      vertex -1.59099 -1.59099 0
      vertex -3.53553 -3.53553 0
      vertex -1.78504 -1.36971 0
    endloop
  endfacet
  facet normal 0 0 -1
    outer loop
      vertex -3.96677 -3.04381 0
      vertex -1.78504 -1.36971 0
      vertex -3.53553 -3.53553 0
    endloop
  endfacet
  facet normal 0 0 -1
    outer loop
      vertex -4.33013 -2.5 0
      vertex -1.94856 -1.125 0
      vertex -3.96677 -3.04381 0
    endloop
  endfacet
  facet normal -0 0 -1
    outer loop
      vertex -1.78504 -1.36971 0
      vertex -3.96677 -3.04381 0
      vertex -1.94856 -1.125 0
    endloop
  endfacet
  facet normal -0 0 -1
    outer loop
      vertex 4.33013 2.5 0
      vertex 1.94856 1.125 0
      vertex 3.96677 3.04381 0
    endloop
  endfacet
  facet normal 0 0 -1
    outer loop
      vertex 1.78504 1.36971 0
      vertex 3.96677 3.04381 0
      vertex 1.94856 1.125 0
    endloop
  endfacet
  facet normal -0 0 -1
    outer loop
      vertex 3.96677 3.04381 0
      vertex 1.78504 1.36971 0
      vertex 3.53553 3.53553 0
    endloop
  endfacet
  facet normal 0 0 -1
    outer loop
      vertex 1.59099 1.59099 0
      vertex 3.53553 3.53553 0
      vertex 1.78504 1.36971 0
    endloop
  endfacet
  facet normal -0 0 -1
    outer loop
      vertex 3.53553 3.53553 0
      vertex 1.59099 1.59099 0
      vertex 3.04381 3.96677 0
    endloop
  endfacet
  facet normal 0 0 -1
    outer loop
      vertex 1.36971 1.78504 0
      vertex 3.04381 3.96677 0
      vertex 1.59099 1.59099 0
    endloop
  endfacet
  facet normal -0 0 -1
    outer loop
      vertex 3.04381 3.96677 0
      vertex 1.36971 1.78504 0
      vertex 2.5 4.33013 0
    endloop
  endfacet
  facet normal 0 0 -1
    outer loop
      vertex 1.125 1.94856 0
      vertex 2.5 4.33013 0
      vertex 1.36971 1.78504 0
    endloop
  endfacet
  facet normal -0 0 -1
    outer loop
      vertex 2.5 4.33013 0
      vertex 1.125 1.94856 0
      vertex 1.91342 4.6194 0
    endloop
  endfacet
  facet normal 0 0 -1
    outer loop
      vertex 0.861037 2.07873 0
      vertex 1.91342 4.6194 0
      vertex 1.125 1.94856 0
    endloop
  endfacet
  facet normal -0 0 -1
    outer loop
      vertex 1.91342 4.6194 0
      vertex 0.861037 2.07873 0
      vertex 1.2941 4.82963 0
    endloop
  endfacet
  facet normal 0 0 -1
    outer loop
      vertex 0.582342 2.17333 0
      vertex 1.2941 4.82963 0
      vertex 0.861037 2.07873 0
    endloop
  endfacet
  facet normal -0 0 -1
    outer loop
      vertex 1.2941 4.82963 0
      vertex 0.582342 2.17333 0
      vertex 0.652631 4.95722 0
    endloop
  endfacet
  facet normal 0 0 -1
    outer loop
      vertex 0.293683 2.23075 0
      vertex 0.652631 4.95722 0
      vertex 0.582342 2.17333 0
    endloop
  endfacet
  facet normal 0 0 -1
    outer loop
      vertex 0 2.25 0
      vertex 0.652631 4.95722 0
      vertex 0.293683 2.23075 0
    endloop
  endfacet
  facet normal 0 0 -1
    outer loop
      vertex 0 2.25 0
      vertex 0 5 0
      vertex 0.652631 4.95722 0
    endloop
  endfacet
  facet normal 0 0 -1
    outer loop
      vertex -0.293683 2.23075 0
      vertex 0 5 0
      vertex 0 2.25 0
    endloop
  endfacet
  facet normal 0 0 -1
    outer loop
      vertex -0.652631 4.95722 0
      vertex -0.293683 2.23075 0
      vertex -0.582342 2.17333 0
    endloop
  endfacet
  facet normal 0 0 -1
    outer loop
      vertex -0.293683 2.23075 0
      vertex -0.652631 4.95722 0
      vertex 0 5 0
    endloop
  endfacet
  facet normal 0 0 -1
    outer loop
      vertex -1.2941 4.82963 0
      vertex -0.582342 2.17333 0
      vertex -0.861037 2.07873 0
    endloop
  endfacet
  facet normal 0 0 -1
    outer loop
      vertex -1.91342 4.6194 0
      vertex -0.861037 2.07873 0
      vertex -1.125 1.94856 0
    endloop
  endfacet
  facet normal 0 0 -1
    outer loop
      vertex -0.582342 2.17333 0
      vertex -1.2941 4.82963 0
      vertex -0.652631 4.95722 0
    endloop
  endfacet
  facet normal 0 0 -1
    outer loop
      vertex -2.5 4.33013 0
      vertex -1.125 1.94856 0
      vertex -1.36971 1.78504 0
    endloop
  endfacet
  facet normal 0 0 -1
    outer loop
      vertex -3.04381 3.96677 0
      vertex -1.36971 1.78504 0
      vertex -1.59099 1.59099 0
    endloop
  endfacet
  facet normal 0 0 -1
    outer loop
      vertex -3.53553 3.53553 0
      vertex -1.59099 1.59099 0
      vertex -1.78504 1.36971 0
    endloop
  endfacet
  facet normal 0 0 -1
    outer loop
      vertex -0.861037 2.07873 0
      vertex -1.91342 4.6194 0
      vertex -1.2941 4.82963 0
    endloop
  endfacet
  facet normal 0 0 -1
    outer loop
      vertex -3.96677 3.04381 0
      vertex -1.78504 1.36971 0
      vertex -1.94856 1.125 0
    endloop
  endfacet
  facet normal 0 0 -1
    outer loop
      vertex -4.33013 2.5 0
      vertex -1.94856 1.125 0
      vertex -2.07873 0.861037 0
    endloop
  endfacet
  facet normal 0 0 -1
    outer loop
      vertex -4.6194 1.91342 0
      vertex -2.07873 0.861037 0
      vertex -2.17333 0.582342 0
    endloop
  endfacet
  facet normal 0 0 -1
    outer loop
      vertex -4.82963 1.2941 0
      vertex -2.17333 0.582342 0
      vertex -2.23075 0.293683 0
    endloop
  endfacet
  facet normal 0 0 -1
    outer loop
      vertex -1.125 1.94856 0
      vertex -2.5 4.33013 0
      vertex -1.91342 4.6194 0
    endloop
  endfacet
  facet normal 0 0 -1
    outer loop
      vertex -4.95722 0.652631 0
      vertex -2.23075 0.293683 0
      vertex -2.25 0 0
    endloop
  endfacet
  facet normal -0 0 -1
    outer loop
      vertex -1.94856 -1.125 0
      vertex -4.33013 -2.5 0
      vertex -2.07873 -0.861037 0
    endloop
  endfacet
  facet normal 0 0 -1
    outer loop
      vertex -4.6194 -1.91342 0
      vertex -2.07873 -0.861037 0
      vertex -4.33013 -2.5 0
    endloop
  endfacet
  facet normal 0 0 -1
    outer loop
      vertex -1.36971 1.78504 0
      vertex -3.04381 3.96677 0
      vertex -2.5 4.33013 0
    endloop
  endfacet
  facet normal -0 0 -1
    outer loop
      vertex -2.07873 -0.861037 0
      vertex -4.6194 -1.91342 0
      vertex -2.17333 -0.582342 0
    endloop
  endfacet
  facet normal 0 0 -1
    outer loop
      vertex -1.59099 1.59099 0
      vertex -3.53553 3.53553 0
      vertex -3.04381 3.96677 0
    endloop
  endfacet
  facet normal 0 0 -1
    outer loop
      vertex -4.82963 -1.2941 0
      vertex -2.17333 -0.582342 0
      vertex -4.6194 -1.91342 0
    endloop
  endfacet
  facet normal 0 0 -1
    outer loop
      vertex -1.78504 1.36971 0
      vertex -3.96677 3.04381 0
      vertex -3.53553 3.53553 0
    endloop
  endfacet
  facet normal -0 0 -1
    outer loop
      vertex -2.17333 -0.582342 0
      vertex -4.82963 -1.2941 0
      vertex -2.23075 -0.293683 0
    endloop
  endfacet
  facet normal 0 0 -1
    outer loop
      vertex -1.94856 1.125 0
      vertex -4.33013 2.5 0
      vertex -3.96677 3.04381 0
    endloop
  endfacet
  facet normal 0 0 -1
    outer loop
      vertex -4.95722 -0.652631 0
      vertex -2.23075 -0.293683 0
      vertex -4.82963 -1.2941 0
    endloop
  endfacet
  facet normal 0 0 -1
    outer loop
      vertex -2.07873 0.861037 0
      vertex -4.6194 1.91342 0
      vertex -4.33013 2.5 0
    endloop
  endfacet
  facet normal -0 0 -1
    outer loop
      vertex -2.23075 -0.293683 0
      vertex -4.95722 -0.652631 0
      vertex -2.25 0 0
    endloop
  endfacet
  facet normal 0 0 -1
    outer loop
      vertex -2.17333 0.582342 0
      vertex -4.82963 1.2941 0
      vertex -4.6194 1.91342 0
    endloop
  endfacet
  facet normal 0 0 -1
    outer loop
      vertex -5 0 0
      vertex -2.25 0 0
      vertex -4.95722 -0.652631 0
    endloop
  endfacet
  facet normal 0 0 -1
    outer loop
      vertex -2.23075 0.293683 0
      vertex -4.95722 0.652631 0
      vertex -4.82963 1.2941 0
    endloop
  endfacet
  facet normal 0 0 -1
    outer loop
      vertex -2.25 0 0
      vertex -5 0 0
      vertex -4.95722 0.652631 0
    endloop
  endfacet
  facet normal 0.946931 0.321438 0
    outer loop
      vertex 4.82963 1.2941 3
      vertex 4.6194 1.91342 0
      vertex 4.6194 1.91342 3
    endloop
  endfacet
  facet normal 0.946931 0.321438 0
    outer loop
      vertex 4.6194 1.91342 0
      vertex 4.82963 1.2941 3
      vertex 4.82963 1.2941 0
    endloop
  endfacet
  facet normal 0.195081 0.980787 -0
    outer loop
      vertex 1.2941 4.82963 0
      vertex 0.652631 4.95722 3
      vertex 1.2941 4.82963 3
    endloop
  endfacet
  facet normal 0.195081 0.980787 0
    outer loop
      vertex 0.652631 4.95722 3
      vertex 1.2941 4.82963 0
      vertex 0.652631 4.95722 0
    endloop
  endfacet
  facet normal 0.659357 0.75183 -0
    outer loop
      vertex 3.53553 3.53553 0
      vertex 3.04381 3.96677 3
      vertex 3.53553 3.53553 3
    endloop
  endfacet
  facet normal 0.659357 0.75183 0
    outer loop
      vertex 3.04381 3.96677 3
      vertex 3.53553 3.53553 0
      vertex 3.04381 3.96677 0
    endloop
  endfacet
  facet normal -0.831471 0.555568 0
    outer loop
      vertex -4.33013 2.5 0
      vertex -3.96677 3.04381 3
      vertex -3.96677 3.04381 0
    endloop
  endfacet
  facet normal -0.831471 0.555568 0
    outer loop
      vertex -3.96677 3.04381 3
      vertex -4.33013 2.5 0
      vertex -4.33013 2.5 3
    endloop
  endfacet
  facet normal -0.75183 0.659357 0
    outer loop
      vertex -3.96677 3.04381 0
      vertex -3.53553 3.53553 3
      vertex -3.53553 3.53553 0
    endloop
  endfacet
  facet normal -0.75183 0.659357 0
    outer loop
      vertex -3.53553 3.53553 3
      vertex -3.96677 3.04381 0
      vertex -3.96677 3.04381 3
    endloop
  endfacet
  facet normal -0.980787 0.195081 0
    outer loop
      vertex -4.95722 0.652631 0
      vertex -4.82963 1.2941 3
      vertex -4.82963 1.2941 0
    endloop
  endfacet
  facet normal -0.980787 0.195081 0
    outer loop
      vertex -4.82963 1.2941 3
      vertex -4.95722 0.652631 0
      vertex -4.95722 0.652631 3
    endloop
  endfacet
  facet normal 0 0 1
    outer loop
      vertex 2.25 0 3
      vertex 5 0 3
      vertex 4.95722 0.652631 3
    endloop
  endfacet
  facet normal 0 0 1
    outer loop
      vertex 2.23075 0.293683 3
      vertex 4.95722 0.652631 3
      vertex 4.82963 1.2941 3
    endloop
  endfacet
  facet normal 0 0 1
    outer loop
      vertex 5 0 3
      vertex 2.25 0 3
      vertex 4.95722 -0.652631 3
    endloop
  endfacet
  facet normal 0 0 1
    outer loop
      vertex 2.17333 0.582342 3
      vertex 4.82963 1.2941 3
      vertex 4.6194 1.91342 3
    endloop
  endfacet
  facet normal -0 0 1
    outer loop
      vertex 2.23075 -0.293683 3
      vertex 4.95722 -0.652631 3
      vertex 2.25 0 3
    endloop
  endfacet
  facet normal 0 0 1
    outer loop
      vertex 2.07873 0.861037 3
      vertex 4.6194 1.91342 3
      vertex 4.33013 2.5 3
    endloop
  endfacet
  facet normal 0 0 1
    outer loop
      vertex 4.95722 -0.652631 3
      vertex 2.23075 -0.293683 3
      vertex 4.82963 -1.2941 3
    endloop
  endfacet
  facet normal 0 0 1
    outer loop
      vertex 1.94856 1.125 3
      vertex 4.33013 2.5 3
      vertex 3.96677 3.04381 3
    endloop
  endfacet
  facet normal -0 0 1
    outer loop
      vertex 2.17333 -0.582342 3
      vertex 4.82963 -1.2941 3
      vertex 2.23075 -0.293683 3
    endloop
  endfacet
  facet normal 0 0 1
    outer loop
      vertex 1.78504 1.36971 3
      vertex 3.96677 3.04381 3
      vertex 3.53553 3.53553 3
    endloop
  endfacet
  facet normal 0 0 1
    outer loop
      vertex 4.82963 -1.2941 3
      vertex 2.17333 -0.582342 3
      vertex 4.6194 -1.91342 3
    endloop
  endfacet
  facet normal 0 0 1
    outer loop
      vertex 1.59099 1.59099 3
      vertex 3.53553 3.53553 3
      vertex 3.04381 3.96677 3
    endloop
  endfacet
  facet normal -0 0 1
    outer loop
      vertex 2.07873 -0.861037 3
      vertex 4.6194 -1.91342 3
      vertex 2.17333 -0.582342 3
    endloop
  endfacet
  facet normal 0 0 1
    outer loop
      vertex 1.36971 1.78504 3
      vertex 3.04381 3.96677 3
      vertex 2.5 4.33013 3
    endloop
  endfacet
  facet normal 0 0 1
    outer loop
      vertex 4.6194 -1.91342 3
      vertex 2.07873 -0.861037 3
      vertex 4.33013 -2.5 3
    endloop
  endfacet
  facet normal -0 0 1
    outer loop
      vertex 1.94856 -1.125 3
      vertex 4.33013 -2.5 3
      vertex 2.07873 -0.861037 3
    endloop
  endfacet
  facet normal 0 0 1
    outer loop
      vertex 4.95722 0.652631 3
      vertex 2.23075 0.293683 3
      vertex 2.25 0 3
    endloop
  endfacet
  facet normal 0 0 1
    outer loop
      vertex 4.82963 1.2941 3
      vertex 2.17333 0.582342 3
      vertex 2.23075 0.293683 3
    endloop
  endfacet
  facet normal 0 0 1
    outer loop
      vertex 4.6194 1.91342 3
      vertex 2.07873 0.861037 3
      vertex 2.17333 0.582342 3
    endloop
  endfacet
  facet normal 0 0 1
    outer loop
      vertex 4.33013 2.5 3
      vertex 1.94856 1.125 3
      vertex 2.07873 0.861037 3
    endloop
  endfacet
  facet normal 0 0 1
    outer loop
      vertex 1.125 1.94856 3
      vertex 2.5 4.33013 3
      vertex 1.91342 4.6194 3
    endloop
  endfacet
  facet normal 0 0 1
    outer loop
      vertex 3.96677 3.04381 3
      vertex 1.78504 1.36971 3
      vertex 1.94856 1.125 3
    endloop
  endfacet
  facet normal 0 0 1
    outer loop
      vertex 3.53553 3.53553 3
      vertex 1.59099 1.59099 3
      vertex 1.78504 1.36971 3
    endloop
  endfacet
  facet normal 0 0 1
    outer loop
      vertex 3.04381 3.96677 3
      vertex 1.36971 1.78504 3
      vertex 1.59099 1.59099 3
    endloop
  endfacet
  facet normal 0 0 1
    outer loop
      vertex 0.861037 2.07873 3
      vertex 1.91342 4.6194 3
      vertex 1.2941 4.82963 3
    endloop
  endfacet
  facet normal 0 0 1
    outer loop
      vertex 2.5 4.33013 3
      vertex 1.125 1.94856 3
      vertex 1.36971 1.78504 3
    endloop
  endfacet
  facet normal 0 0 1
    outer loop
      vertex 1.91342 4.6194 3
      vertex 0.861037 2.07873 3
      vertex 1.125 1.94856 3
    endloop
  endfacet
  facet normal 0 0 1
    outer loop
      vertex 0.582342 2.17333 3
      vertex 1.2941 4.82963 3
      vertex 0.652631 4.95722 3
    endloop
  endfacet
  facet normal 0 0 1
    outer loop
      vertex 1.2941 4.82963 3
      vertex 0.582342 2.17333 3
      vertex 0.861037 2.07873 3
    endloop
  endfacet
  facet normal 0 0 1
    outer loop
      vertex 0.652631 4.95722 3
      vertex 0.293683 2.23075 3
      vertex 0.582342 2.17333 3
    endloop
  endfacet
  facet normal 0 0 1
    outer loop
      vertex 0 5 3
      vertex 0.293683 2.23075 3
      vertex 0.652631 4.95722 3
    endloop
  endfacet
  facet normal 0 0 1
    outer loop
      vertex 0 5 3
      vertex 0 2.25 3
      vertex 0.293683 2.23075 3
    endloop
  endfacet
  facet normal 0 0 1
    outer loop
      vertex 0 5 3
      vertex -0.293683 2.23075 3
      vertex 0 2.25 3
    endloop
  endfacet
  facet normal -0 0 1
    outer loop
      vertex -0.652631 4.95722 3
      vertex -0.293683 2.23075 3
      vertex 0 5 3
    endloop
  endfacet
  facet normal 0 0 1
    outer loop
      vertex -0.293683 2.23075 3
      vertex -0.652631 4.95722 3
      vertex -0.582342 2.17333 3
    endloop
  endfacet
  facet normal -0 0 1
    outer loop
      vertex -1.2941 4.82963 3
      vertex -0.582342 2.17333 3
      vertex -0.652631 4.95722 3
    endloop
  endfacet
  facet normal 0 0 1
    outer loop
      vertex -0.582342 2.17333 3
      vertex -1.2941 4.82963 3
      vertex -0.861037 2.07873 3
    endloop
  endfacet
  facet normal -0 0 1
    outer loop
      vertex -1.91342 4.6194 3
      vertex -0.861037 2.07873 3
      vertex -1.2941 4.82963 3
    endloop
  endfacet
  facet normal 0 0 1
    outer loop
      vertex -0.861037 2.07873 3
      vertex -1.91342 4.6194 3
      vertex -1.125 1.94856 3
    endloop
  endfacet
  facet normal -0 0 1
    outer loop
      vertex -2.5 4.33013 3
      vertex -1.125 1.94856 3
      vertex -1.91342 4.6194 3
    endloop
  endfacet
  facet normal 0 0 1
    outer loop
      vertex -1.125 1.94856 3
      vertex -2.5 4.33013 3
      vertex -1.36971 1.78504 3
    endloop
  endfacet
  facet normal -0 0 1
    outer loop
      vertex -3.04381 3.96677 3
      vertex -1.36971 1.78504 3
      vertex -2.5 4.33013 3
    endloop
  endfacet
  facet normal 0 0 1
    outer loop
      vertex -1.36971 1.78504 3
      vertex -3.04381 3.96677 3
      vertex -1.59099 1.59099 3
    endloop
  endfacet
  facet normal -0 0 1
    outer loop
      vertex -3.53553 3.53553 3
      vertex -1.59099 1.59099 3
      vertex -3.04381 3.96677 3
    endloop
  endfacet
  facet normal 0 0 1
    outer loop
      vertex -1.59099 1.59099 3
      vertex -3.53553 3.53553 3
      vertex -1.78504 1.36971 3
    endloop
  endfacet
  facet normal -0 0 1
    outer loop
      vertex -3.96677 3.04381 3
      vertex -1.78504 1.36971 3
      vertex -3.53553 3.53553 3
    endloop
  endfacet
  facet normal -0 0 1
    outer loop
      vertex -4.33013 2.5 3
      vertex -1.94856 1.125 3
      vertex -3.96677 3.04381 3
    endloop
  endfacet
  facet normal 0 0 1
    outer loop
      vertex -1.78504 1.36971 3
      vertex -3.96677 3.04381 3
      vertex -1.94856 1.125 3
    endloop
  endfacet
  facet normal 0 0 1
    outer loop
      vertex 4.33013 -2.5 3
      vertex 1.94856 -1.125 3
      vertex 3.96677 -3.04381 3
    endloop
  endfacet
  facet normal -0 0 1
    outer loop
      vertex 1.78504 -1.36971 3
      vertex 3.96677 -3.04381 3
      vertex 1.94856 -1.125 3
    endloop
  endfacet
  facet normal 0 0 1
    outer loop
      vertex 3.96677 -3.04381 3
      vertex 1.78504 -1.36971 3
      vertex 3.53553 -3.53553 3
    endloop
  endfacet
  facet normal -0 0 1
    outer loop
      vertex 1.59099 -1.59099 3
      vertex 3.53553 -3.53553 3
      vertex 1.78504 -1.36971 3
    endloop
  endfacet
  facet normal 0 0 1
    outer loop
      vertex 3.53553 -3.53553 3
      vertex 1.59099 -1.59099 3
      vertex 3.04381 -3.96677 3
    endloop
  endfacet
  facet normal -0 0 1
    outer loop
      vertex 1.36971 -1.78504 3
      vertex 3.04381 -3.96677 3
      vertex 1.59099 -1.59099 3
    endloop
  endfacet
  facet normal 0 0 1
    outer loop
      vertex 3.04381 -3.96677 3
      vertex 1.36971 -1.78504 3
      vertex 2.5 -4.33013 3
    endloop
  endfacet
  facet normal -0 0 1
    outer loop
      vertex 1.125 -1.94856 3
      vertex 2.5 -4.33013 3
      vertex 1.36971 -1.78504 3
    endloop
  endfacet
  facet normal 0 0 1
    outer loop
      vertex 2.5 -4.33013 3
      vertex 1.125 -1.94856 3
      vertex 1.91342 -4.6194 3
    endloop
  endfacet
  facet normal -0 0 1
    outer loop
      vertex 0.861037 -2.07873 3
      vertex 1.91342 -4.6194 3
      vertex 1.125 -1.94856 3
    endloop
  endfacet
  facet normal 0 0 1
    outer loop
      vertex 1.91342 -4.6194 3
      vertex 0.861037 -2.07873 3
      vertex 1.2941 -4.82963 3
    endloop
  endfacet
  facet normal -0 0 1
    outer loop
      vertex 0.582342 -2.17333 3
      vertex 1.2941 -4.82963 3
      vertex 0.861037 -2.07873 3
    endloop
  endfacet
  facet normal 0 0 1
    outer loop
      vertex 1.2941 -4.82963 3
      vertex 0.582342 -2.17333 3
      vertex 0.652631 -4.95722 3
    endloop
  endfacet
  facet normal -0 0 1
    outer loop
      vertex 0.293683 -2.23075 3
      vertex 0.652631 -4.95722 3
      vertex 0.582342 -2.17333 3
    endloop
  endfacet
  facet normal -0 0 1
    outer loop
      vertex 0 -2.25 3
      vertex 0.652631 -4.95722 3
      vertex 0.293683 -2.23075 3
    endloop
  endfacet
  facet normal 0 0 1
    outer loop
      vertex 0 -2.25 3
      vertex 0 -5 3
      vertex 0.652631 -4.95722 3
    endloop
  endfacet
  facet normal 0 0 1
    outer loop
      vertex -0.293683 -2.23075 3
      vertex 0 -5 3
      vertex 0 -2.25 3
    endloop
  endfacet
  facet normal 0 0 1
    outer loop
      vertex -0.652631 -4.95722 3
      vertex -0.293683 -2.23075 3
      vertex -0.582342 -2.17333 3
    endloop
  endfacet
  facet normal 0 0 1
    outer loop
      vertex -0.293683 -2.23075 3
      vertex -0.652631 -4.95722 3
      vertex 0 -5 3
    endloop
  endfacet
  facet normal 0 0 1
    outer loop
      vertex -1.2941 -4.82963 3
      vertex -0.582342 -2.17333 3
      vertex -0.861037 -2.07873 3
    endloop
  endfacet
  facet normal 0 0 1
    outer loop
      vertex -1.91342 -4.6194 3
      vertex -0.861037 -2.07873 3
      vertex -1.125 -1.94856 3
    endloop
  endfacet
  facet normal 0 0 1
    outer loop
      vertex -0.582342 -2.17333 3
      vertex -1.2941 -4.82963 3
      vertex -0.652631 -4.95722 3
    endloop
  endfacet
  facet normal 0 0 1
    outer loop
      vertex -2.5 -4.33013 3
      vertex -1.125 -1.94856 3
      vertex -1.36971 -1.78504 3
    endloop
  endfacet
  facet normal 0 0 1
    outer loop
      vertex -3.04381 -3.96677 3
      vertex -1.36971 -1.78504 3
      vertex -1.59099 -1.59099 3
    endloop
  endfacet
  facet normal 0 0 1
    outer loop
      vertex -3.53553 -3.53553 3
      vertex -1.59099 -1.59099 3
      vertex -1.78504 -1.36971 3
    endloop
  endfacet
  facet normal 0 0 1
    outer loop
      vertex -0.861037 -2.07873 3
      vertex -1.91342 -4.6194 3
      vertex -1.2941 -4.82963 3
    endloop
  endfacet
  facet normal 0 0 1
    outer loop
      vertex -3.96677 -3.04381 3
      vertex -1.78504 -1.36971 3
      vertex -1.94856 -1.125 3
    endloop
  endfacet
  facet normal 0 0 1
    outer loop
      vertex -4.33013 -2.5 3
      vertex -1.94856 -1.125 3
      vertex -2.07873 -0.861037 3
    endloop
  endfacet
  facet normal 0 0 1
    outer loop
      vertex -4.6194 -1.91342 3
      vertex -2.07873 -0.861037 3
      vertex -2.17333 -0.582342 3
    endloop
  endfacet
  facet normal 0 0 1
    outer loop
      vertex -4.82963 -1.2941 3
      vertex -2.17333 -0.582342 3
      vertex -2.23075 -0.293683 3
    endloop
  endfacet
  facet normal 0 0 1
    outer loop
      vertex -1.125 -1.94856 3
      vertex -2.5 -4.33013 3
      vertex -1.91342 -4.6194 3
    endloop
  endfacet
  facet normal 0 0 1
    outer loop
      vertex -4.95722 -0.652631 3
      vertex -2.23075 -0.293683 3
      vertex -2.25 0 3
    endloop
  endfacet
  facet normal 0 0 1
    outer loop
      vertex -1.94856 1.125 3
      vertex -4.33013 2.5 3
      vertex -2.07873 0.861037 3
    endloop
  endfacet
  facet normal -0 0 1
    outer loop
      vertex -4.6194 1.91342 3
      vertex -2.07873 0.861037 3
      vertex -4.33013 2.5 3
    endloop
  endfacet
  facet normal 0 0 1
    outer loop
      vertex -1.36971 -1.78504 3
      vertex -3.04381 -3.96677 3
      vertex -2.5 -4.33013 3
    endloop
  endfacet
  facet normal 0 0 1
    outer loop
      vertex -2.07873 0.861037 3
      vertex -4.6194 1.91342 3
      vertex -2.17333 0.582342 3
    endloop
  endfacet
  facet normal 0 0 1
    outer loop
      vertex -1.59099 -1.59099 3
      vertex -3.53553 -3.53553 3
      vertex -3.04381 -3.96677 3
    endloop
  endfacet
  facet normal -0 0 1
    outer loop
      vertex -4.82963 1.2941 3
      vertex -2.17333 0.582342 3
      vertex -4.6194 1.91342 3
    endloop
  endfacet
  facet normal 0 0 1
    outer loop
      vertex -1.78504 -1.36971 3
      vertex -3.96677 -3.04381 3
      vertex -3.53553 -3.53553 3
    endloop
  endfacet
  facet normal 0 0 1
    outer loop
      vertex -2.17333 0.582342 3
      vertex -4.82963 1.2941 3
      vertex -2.23075 0.293683 3
    endloop
  endfacet
  facet normal 0 0 1
    outer loop
      vertex -1.94856 -1.125 3
      vertex -4.33013 -2.5 3
      vertex -3.96677 -3.04381 3
    endloop
  endfacet
  facet normal -0 0 1
    outer loop
      vertex -4.95722 0.652631 3
      vertex -2.23075 0.293683 3
      vertex -4.82963 1.2941 3
    endloop
  endfacet
  facet normal 0 0 1
    outer loop
      vertex -2.07873 -0.861037 3
      vertex -4.6194 -1.91342 3
      vertex -4.33013 -2.5 3
    endloop
  endfacet
  facet normal 0 0 1
    outer loop
      vertex -2.23075 0.293683 3
      vertex -4.95722 0.652631 3
      vertex -2.25 0 3
    endloop
  endfacet
  facet normal 0 0 1
    outer loop
      vertex -2.17333 -0.582342 3
      vertex -4.82963 -1.2941 3
      vertex -4.6194 -1.91342 3
    endloop
  endfacet
  facet normal 0 0 1
    outer loop
      vertex -5 0 3
      vertex -2.25 0 3
      vertex -4.95722 0.652631 3
    endloop
  endfacet
  facet normal 0 0 1
    outer loop
      vertex -2.23075 -0.293683 3
      vertex -4.95722 -0.652631 3
      vertex -4.82963 -1.2941 3
    endloop
  endfacet
  facet normal 0 0 1
    outer loop
      vertex -2.25 0 3
      vertex -5 0 3
      vertex -4.95722 -0.652631 3
    endloop
  endfacet
  facet normal -0.555568 0.831471 0
    outer loop
      vertex -2.5 4.33013 0
      vertex -3.04381 3.96677 3
      vertex -2.5 4.33013 3
    endloop
  endfacet
  facet normal -0.555568 0.831471 0
    outer loop
      vertex -3.04381 3.96677 3
      vertex -2.5 4.33013 0
      vertex -3.04381 3.96677 0
    endloop
  endfacet
  facet normal -0.0654097 0.997858 0
    outer loop
      vertex 0 5 0
      vertex -0.652631 4.95722 3
      vertex 0 5 3
    endloop
  endfacet
  facet normal -0.0654097 0.997858 0
    outer loop
      vertex -0.652631 4.95722 3
      vertex 0 5 0
      vertex -0.652631 4.95722 0
    endloop
  endfacet
  facet normal 0.0654097 -0.997858 0
    outer loop
      vertex 0 -5 0
      vertex 0.652631 -4.95722 3
      vertex 0 -5 3
    endloop
  endfacet
  facet normal 0.0654097 -0.997858 0
    outer loop
      vertex 0.652631 -4.95722 3
      vertex 0 -5 0
      vertex 0.652631 -4.95722 0
    endloop
  endfacet
  facet normal 0.321438 -0.946931 0
    outer loop
      vertex 1.2941 -4.82963 0
      vertex 1.91342 -4.6194 3
      vertex 1.2941 -4.82963 3
    endloop
  endfacet
  facet normal 0.321438 -0.946931 0
    outer loop
      vertex 1.91342 -4.6194 3
      vertex 1.2941 -4.82963 0
      vertex 1.91342 -4.6194 0
    endloop
  endfacet
  facet normal 0.555568 -0.831471 0
    outer loop
      vertex 2.5 -4.33013 0
      vertex 3.04381 -3.96677 3
      vertex 2.5 -4.33013 3
    endloop
  endfacet
  facet normal 0.555568 -0.831471 0
    outer loop
      vertex 3.04381 -3.96677 3
      vertex 2.5 -4.33013 0
      vertex 3.04381 -3.96677 0
    endloop
  endfacet
  facet normal 0.946931 -0.321438 0
    outer loop
      vertex 4.6194 -1.91342 3
      vertex 4.82963 -1.2941 0
      vertex 4.82963 -1.2941 3
    endloop
  endfacet
  facet normal 0.946931 -0.321438 0
    outer loop
      vertex 4.82963 -1.2941 0
      vertex 4.6194 -1.91342 3
      vertex 4.6194 -1.91342 0
    endloop
  endfacet
  facet normal 0.75183 -0.659357 0
    outer loop
      vertex 3.53553 -3.53553 3
      vertex 3.96677 -3.04381 0
      vertex 3.96677 -3.04381 3
    endloop
  endfacet
  facet normal 0.75183 -0.659357 0
    outer loop
      vertex 3.96677 -3.04381 0
      vertex 3.53553 -3.53553 3
      vertex 3.53553 -3.53553 0
    endloop
  endfacet
  facet normal -0.659357 -0.75183 0
    outer loop
      vertex -3.53553 -3.53553 0
      vertex -3.04381 -3.96677 3
      vertex -3.53553 -3.53553 3
    endloop
  endfacet
  facet normal -0.659357 -0.75183 -0
    outer loop
      vertex -3.04381 -3.96677 3
      vertex -3.53553 -3.53553 0
      vertex -3.04381 -3.96677 0
    endloop
  endfacet
  facet normal -0.44229 -0.896872 0
    outer loop
      vertex -2.5 -4.33013 0
      vertex -1.91342 -4.6194 3
      vertex -2.5 -4.33013 3
    endloop
  endfacet
  facet normal -0.44229 -0.896872 -0
    outer loop
      vertex -1.91342 -4.6194 3
      vertex -2.5 -4.33013 0
      vertex -1.91342 -4.6194 0
    endloop
  endfacet
  facet normal -0.195081 -0.980787 0
    outer loop
      vertex -1.2941 -4.82963 0
      vertex -0.652631 -4.95722 3
      vertex -1.2941 -4.82963 3
    endloop
  endfacet
  facet normal -0.195081 -0.980787 -0
    outer loop
      vertex -0.652631 -4.95722 3
      vertex -1.2941 -4.82963 0
      vertex -0.652631 -4.95722 0
    endloop
  endfacet
  facet normal -0.831471 -0.555568 0
    outer loop
      vertex -3.96677 -3.04381 0
      vertex -4.33013 -2.5 3
      vertex -4.33013 -2.5 0
    endloop
  endfacet
  facet normal -0.831471 -0.555568 0
    outer loop
      vertex -4.33013 -2.5 3
      vertex -3.96677 -3.04381 0
      vertex -3.96677 -3.04381 3
    endloop
  endfacet
  facet normal -0.946931 -0.321438 0
    outer loop
      vertex -4.6194 -1.91342 0
      vertex -4.82963 -1.2941 3
      vertex -4.82963 -1.2941 0
    endloop
  endfacet
  facet normal -0.946931 -0.321438 0
    outer loop
      vertex -4.82963 -1.2941 3
      vertex -4.6194 -1.91342 0
      vertex -4.6194 -1.91342 3
    endloop
  endfacet
  facet normal -0.997858 -0.0654097 0
    outer loop
      vertex -4.95722 -0.652631 0
      vertex -5 0 3
      vertex -5 0 0
    endloop
  endfacet
  facet normal -0.997858 -0.0654097 0
    outer loop
      vertex -5 0 3
      vertex -4.95722 -0.652631 0
      vertex -4.95722 -0.652631 3
    endloop
  endfacet
  facet normal 0.195081 -0.980787 0
    outer loop
      vertex 0.652631 -4.95722 0
      vertex 1.2941 -4.82963 3
      vertex 0.652631 -4.95722 3
    endloop
  endfacet
  facet normal 0.195081 -0.980787 0
    outer loop
      vertex 1.2941 -4.82963 3
      vertex 0.652631 -4.95722 0
      vertex 1.2941 -4.82963 0
    endloop
  endfacet
  facet normal 0.659357 -0.75183 0
    outer loop
      vertex 3.04381 -3.96677 0
      vertex 3.53553 -3.53553 3
      vertex 3.04381 -3.96677 3
    endloop
  endfacet
  facet normal 0.659357 -0.75183 0
    outer loop
      vertex 3.53553 -3.53553 3
      vertex 3.04381 -3.96677 0
      vertex 3.53553 -3.53553 0
    endloop
  endfacet
  facet normal 0.896872 -0.44229 0
    outer loop
      vertex 4.33013 -2.5 3
      vertex 4.6194 -1.91342 0
      vertex 4.6194 -1.91342 3
    endloop
  endfacet
  facet normal 0.896872 -0.44229 0
    outer loop
      vertex 4.6194 -1.91342 0
      vertex 4.33013 -2.5 3
      vertex 4.33013 -2.5 0
    endloop
  endfacet
  facet normal 0.980787 -0.195081 0
    outer loop
      vertex 4.82963 -1.2941 3
      vertex 4.95722 -0.652631 0
      vertex 4.95722 -0.652631 3
    endloop
  endfacet
  facet normal 0.980787 -0.195081 0
    outer loop
      vertex 4.95722 -0.652631 0
      vertex 4.82963 -1.2941 3
      vertex 4.82963 -1.2941 0
    endloop
  endfacet
  facet normal -0.555568 -0.831471 0
    outer loop
      vertex -3.04381 -3.96677 0
      vertex -2.5 -4.33013 3
      vertex -3.04381 -3.96677 3
    endloop
  endfacet
  facet normal -0.555568 -0.831471 -0
    outer loop
      vertex -2.5 -4.33013 3
      vertex -3.04381 -3.96677 0
      vertex -2.5 -4.33013 0
    endloop
  endfacet
  facet normal -0.980787 -0.195081 0
    outer loop
      vertex -4.82963 -1.2941 0
      vertex -4.95722 -0.652631 3
      vertex -4.95722 -0.652631 0
    endloop
  endfacet
  facet normal -0.980787 -0.195081 0
    outer loop
      vertex -4.95722 -0.652631 3
      vertex -4.82963 -1.2941 0
      vertex -4.82963 -1.2941 3
    endloop
  endfacet
  facet normal 0.831471 -0.555568 0
    outer loop
      vertex 3.96677 -3.04381 3
      vertex 4.33013 -2.5 0
      vertex 4.33013 -2.5 3
    endloop
  endfacet
  facet normal 0.831471 -0.555568 0
    outer loop
      vertex 4.33013 -2.5 0
      vertex 3.96677 -3.04381 3
      vertex 3.96677 -3.04381 0
    endloop
  endfacet
  facet normal 0.997858 -0.0654097 0
    outer loop
      vertex 4.95722 -0.652631 3
      vertex 5 0 0
      vertex 5 0 3
    endloop
  endfacet
  facet normal 0.997858 -0.0654097 0
    outer loop
      vertex 5 0 0
      vertex 4.95722 -0.652631 3
      vertex 4.95722 -0.652631 0
    endloop
  endfacet
  facet normal -0.659332 -0.751852 0
    outer loop
      vertex 1.36971 1.78504 0
      vertex 1.59099 1.59099 3
      vertex 1.36971 1.78504 3
    endloop
  endfacet
  facet normal -0.659332 -0.751852 -0
    outer loop
      vertex 1.59099 1.59099 3
      vertex 1.36971 1.78504 0
      vertex 1.59099 1.59099 0
    endloop
  endfacet
  facet normal 0.321427 0.946934 -0
    outer loop
      vertex -0.582342 -2.17333 0
      vertex -0.861037 -2.07873 3
      vertex -0.582342 -2.17333 3
    endloop
  endfacet
  facet normal 0.321427 0.946934 0
    outer loop
      vertex -0.861037 -2.07873 3
      vertex -0.582342 -2.17333 0
      vertex -0.861037 -2.07873 0
    endloop
  endfacet
  facet normal 0.321427 -0.946934 0
    outer loop
      vertex -0.861037 2.07873 0
      vertex -0.582342 2.17333 3
      vertex -0.861037 2.07873 3
    endloop
  endfacet
  facet normal 0.321427 -0.946934 0
    outer loop
      vertex -0.582342 2.17333 3
      vertex -0.861037 2.07873 0
      vertex -0.582342 2.17333 0
    endloop
  endfacet
  facet normal 0.896876 -0.442283 0
    outer loop
      vertex -2.07873 0.861037 3
      vertex -1.94856 1.125 0
      vertex -1.94856 1.125 3
    endloop
  endfacet
  facet normal 0.896876 -0.442283 0
    outer loop
      vertex -1.94856 1.125 0
      vertex -2.07873 0.861037 3
      vertex -2.07873 0.861037 0
    endloop
  endfacet
  facet normal -0.896876 -0.442283 0
    outer loop
      vertex 2.07873 0.861037 0
      vertex 1.94856 1.125 3
      vertex 1.94856 1.125 0
    endloop
  endfacet
  facet normal -0.896876 -0.442283 0
    outer loop
      vertex 1.94856 1.125 3
      vertex 2.07873 0.861037 0
      vertex 2.07873 0.861037 3
    endloop
  endfacet
  facet normal -0.831454 -0.555594 0
    outer loop
      vertex 1.94856 1.125 0
      vertex 1.78504 1.36971 3
      vertex 1.78504 1.36971 0
    endloop
  endfacet
  facet normal -0.831454 -0.555594 0
    outer loop
      vertex 1.78504 1.36971 3
      vertex 1.94856 1.125 0
      vertex 1.94856 1.125 3
    endloop
  endfacet
  facet normal -0.751852 -0.659332 0
    outer loop
      vertex 1.78504 1.36971 0
      vertex 1.59099 1.59099 3
      vertex 1.59099 1.59099 0
    endloop
  endfacet
  facet normal -0.751852 -0.659332 0
    outer loop
      vertex 1.59099 1.59099 3
      vertex 1.78504 1.36971 0
      vertex 1.78504 1.36971 3
    endloop
  endfacet
  facet normal -0.442283 -0.896876 0
    outer loop
      vertex 0.861037 2.07873 0
      vertex 1.125 1.94856 3
      vertex 0.861037 2.07873 3
    endloop
  endfacet
  facet normal -0.442283 -0.896876 -0
    outer loop
      vertex 1.125 1.94856 3
      vertex 0.861037 2.07873 0
      vertex 1.125 1.94856 0
    endloop
  endfacet
  facet normal -0.321427 -0.946934 0
    outer loop
      vertex 0.582342 2.17333 0
      vertex 0.861037 2.07873 3
      vertex 0.582342 2.17333 3
    endloop
  endfacet
  facet normal -0.321427 -0.946934 -0
    outer loop
      vertex 0.861037 2.07873 3
      vertex 0.582342 2.17333 0
      vertex 0.861037 2.07873 0
    endloop
  endfacet
  facet normal 0.751852 -0.659332 0
    outer loop
      vertex -1.78504 1.36971 3
      vertex -1.59099 1.59099 0
      vertex -1.59099 1.59099 3
    endloop
  endfacet
  facet normal 0.751852 -0.659332 0
    outer loop
      vertex -1.59099 1.59099 0
      vertex -1.78504 1.36971 3
      vertex -1.78504 1.36971 0
    endloop
  endfacet
  facet normal 0.442283 -0.896876 0
    outer loop
      vertex -1.125 1.94856 0
      vertex -0.861037 2.07873 3
      vertex -1.125 1.94856 3
    endloop
  endfacet
  facet normal 0.442283 -0.896876 0
    outer loop
      vertex -0.861037 2.07873 3
      vertex -1.125 1.94856 0
      vertex -0.861037 2.07873 0
    endloop
  endfacet
  facet normal 0.195097 -0.980784 0
    outer loop
      vertex -0.582342 2.17333 0
      vertex -0.293683 2.23075 3
      vertex -0.582342 2.17333 3
    endloop
  endfacet
  facet normal 0.195097 -0.980784 0
    outer loop
      vertex -0.293683 2.23075 3
      vertex -0.582342 2.17333 0
      vertex -0.293683 2.23075 0
    endloop
  endfacet
  facet normal -0.997859 0.0654065 0
    outer loop
      vertex 2.23075 -0.293683 0
      vertex 2.25 0 3
      vertex 2.25 0 0
    endloop
  endfacet
  facet normal -0.997859 0.0654065 0
    outer loop
      vertex 2.25 0 3
      vertex 2.23075 -0.293683 0
      vertex 2.23075 -0.293683 3
    endloop
  endfacet
  facet normal -0.321427 0.946934 0
    outer loop
      vertex 0.861037 -2.07873 0
      vertex 0.582342 -2.17333 3
      vertex 0.861037 -2.07873 3
    endloop
  endfacet
  facet normal -0.321427 0.946934 0
    outer loop
      vertex 0.582342 -2.17333 3
      vertex 0.861037 -2.07873 0
      vertex 0.582342 -2.17333 0
    endloop
  endfacet
  facet normal -0.442283 0.896876 0
    outer loop
      vertex 1.125 -1.94856 0
      vertex 0.861037 -2.07873 3
      vertex 1.125 -1.94856 3
    endloop
  endfacet
  facet normal -0.442283 0.896876 0
    outer loop
      vertex 0.861037 -2.07873 3
      vertex 1.125 -1.94856 0
      vertex 0.861037 -2.07873 0
    endloop
  endfacet
  facet normal -0.751852 0.659332 0
    outer loop
      vertex 1.59099 -1.59099 0
      vertex 1.78504 -1.36971 3
      vertex 1.78504 -1.36971 0
    endloop
  endfacet
  facet normal -0.751852 0.659332 0
    outer loop
      vertex 1.78504 -1.36971 3
      vertex 1.59099 -1.59099 0
      vertex 1.59099 -1.59099 3
    endloop
  endfacet
  facet normal 0.195097 0.980784 -0
    outer loop
      vertex -0.293683 -2.23075 0
      vertex -0.582342 -2.17333 3
      vertex -0.293683 -2.23075 3
    endloop
  endfacet
  facet normal 0.195097 0.980784 0
    outer loop
      vertex -0.582342 -2.17333 3
      vertex -0.293683 -2.23075 0
      vertex -0.582342 -2.17333 0
    endloop
  endfacet
  facet normal 0.659332 0.751852 -0
    outer loop
      vertex -1.36971 -1.78504 0
      vertex -1.59099 -1.59099 3
      vertex -1.36971 -1.78504 3
    endloop
  endfacet
  facet normal 0.659332 0.751852 0
    outer loop
      vertex -1.59099 -1.59099 3
      vertex -1.36971 -1.78504 0
      vertex -1.59099 -1.59099 0
    endloop
  endfacet
  facet normal 0.896876 0.442283 0
    outer loop
      vertex -1.94856 -1.125 3
      vertex -2.07873 -0.861037 0
      vertex -2.07873 -0.861037 3
    endloop
  endfacet
  facet normal 0.896876 0.442283 0
    outer loop
      vertex -2.07873 -0.861037 0
      vertex -1.94856 -1.125 3
      vertex -1.94856 -1.125 0
    endloop
  endfacet
  facet normal 0.980784 0.195097 0
    outer loop
      vertex -2.17333 -0.582342 3
      vertex -2.23075 -0.293683 0
      vertex -2.23075 -0.293683 3
    endloop
  endfacet
  facet normal 0.980784 0.195097 0
    outer loop
      vertex -2.23075 -0.293683 0
      vertex -2.17333 -0.582342 3
      vertex -2.17333 -0.582342 0
    endloop
  endfacet
  facet normal -0.980784 -0.195097 0
    outer loop
      vertex 2.23075 0.293683 0
      vertex 2.17333 0.582342 3
      vertex 2.17333 0.582342 0
    endloop
  endfacet
  facet normal -0.980784 -0.195097 0
    outer loop
      vertex 2.17333 0.582342 3
      vertex 2.23075 0.293683 0
      vertex 2.23075 0.293683 3
    endloop
  endfacet
  facet normal -0.946934 -0.321427 0
    outer loop
      vertex 2.17333 0.582342 0
      vertex 2.07873 0.861037 3
      vertex 2.07873 0.861037 0
    endloop
  endfacet
  facet normal -0.946934 -0.321427 0
    outer loop
      vertex 2.07873 0.861037 3
      vertex 2.17333 0.582342 0
      vertex 2.17333 0.582342 3
    endloop
  endfacet
  facet normal -0.555594 -0.831454 0
    outer loop
      vertex 1.125 1.94856 0
      vertex 1.36971 1.78504 3
      vertex 1.125 1.94856 3
    endloop
  endfacet
  facet normal -0.555594 -0.831454 -0
    outer loop
      vertex 1.36971 1.78504 3
      vertex 1.125 1.94856 0
      vertex 1.36971 1.78504 0
    endloop
  endfacet
  facet normal -0.0654065 -0.997859 0
    outer loop
      vertex 0 2.25 0
      vertex 0.293683 2.23075 3
      vertex 0 2.25 3
    endloop
  endfacet
  facet normal -0.0654065 -0.997859 -0
    outer loop
      vertex 0.293683 2.23075 3
      vertex 0 2.25 0
      vertex 0.293683 2.23075 0
    endloop
  endfacet
  facet normal 0.997859 -0.0654065 0
    outer loop
      vertex -2.25 0 3
      vertex -2.23075 0.293683 0
      vertex -2.23075 0.293683 3
    endloop
  endfacet
  facet normal 0.997859 -0.0654065 0
    outer loop
      vertex -2.23075 0.293683 0
      vertex -2.25 0 3
      vertex -2.25 0 0
    endloop
  endfacet
  facet normal 0.946934 -0.321427 0
    outer loop
      vertex -2.17333 0.582342 3
      vertex -2.07873 0.861037 0
      vertex -2.07873 0.861037 3
    endloop
  endfacet
  facet normal 0.946934 -0.321427 0
    outer loop
      vertex -2.07873 0.861037 0
      vertex -2.17333 0.582342 3
      vertex -2.17333 0.582342 0
    endloop
  endfacet
  facet normal 0.831454 -0.555594 0
    outer loop
      vertex -1.94856 1.125 3
      vertex -1.78504 1.36971 0
      vertex -1.78504 1.36971 3
    endloop
  endfacet
  facet normal 0.831454 -0.555594 0
    outer loop
      vertex -1.78504 1.36971 0
      vertex -1.94856 1.125 3
      vertex -1.94856 1.125 0
    endloop
  endfacet
  facet normal 0.0654065 -0.997859 0
    outer loop
      vertex -0.293683 2.23075 0
      vertex 0 2.25 3
      vertex -0.293683 2.23075 3
    endloop
  endfacet
  facet normal 0.0654065 -0.997859 0
    outer loop
      vertex 0 2.25 3
      vertex -0.293683 2.23075 0
      vertex 0 2.25 0
    endloop
  endfacet
  facet normal 0.555594 -0.831454 0
    outer loop
      vertex -1.36971 1.78504 0
      vertex -1.125 1.94856 3
      vertex -1.36971 1.78504 3
    endloop
  endfacet
  facet normal 0.555594 -0.831454 0
    outer loop
      vertex -1.125 1.94856 3
      vertex -1.36971 1.78504 0
      vertex -1.125 1.94856 0
    endloop
  endfacet
  facet normal 0.659332 -0.751852 0
    outer loop
      vertex -1.59099 1.59099 0
      vertex -1.36971 1.78504 3
      vertex -1.59099 1.59099 3
    endloop
  endfacet
  facet normal 0.659332 -0.751852 0
    outer loop
      vertex -1.36971 1.78504 3
      vertex -1.59099 1.59099 0
      vertex -1.36971 1.78504 0
    endloop
  endfacet
  facet normal -0.997859 -0.0654065 0
    outer loop
      vertex 2.25 0 0
      vertex 2.23075 0.293683 3
      vertex 2.23075 0.293683 0
    endloop
  endfacet
  facet normal -0.997859 -0.0654065 0
    outer loop
      vertex 2.23075 0.293683 3
      vertex 2.25 0 0
      vertex 2.25 0 3
    endloop
  endfacet
  facet normal -0.0654065 0.997859 0
    outer loop
      vertex 0.293683 -2.23075 0
      vertex 0 -2.25 3
      vertex 0.293683 -2.23075 3
    endloop
  endfacet
  facet normal -0.0654065 0.997859 0
    outer loop
      vertex 0 -2.25 3
      vertex 0.293683 -2.23075 0
      vertex 0 -2.25 0
    endloop
  endfacet
  facet normal -0.195097 0.980784 0
    outer loop
      vertex 0.582342 -2.17333 0
      vertex 0.293683 -2.23075 3
      vertex 0.582342 -2.17333 3
    endloop
  endfacet
  facet normal -0.195097 0.980784 0
    outer loop
      vertex 0.293683 -2.23075 3
      vertex 0.582342 -2.17333 0
      vertex 0.293683 -2.23075 0
    endloop
  endfacet
  facet normal -0.555594 0.831454 0
    outer loop
      vertex 1.36971 -1.78504 0
      vertex 1.125 -1.94856 3
      vertex 1.36971 -1.78504 3
    endloop
  endfacet
  facet normal -0.555594 0.831454 0
    outer loop
      vertex 1.125 -1.94856 3
      vertex 1.36971 -1.78504 0
      vertex 1.125 -1.94856 0
    endloop
  endfacet
  facet normal -0.896876 0.442283 0
    outer loop
      vertex 1.94856 -1.125 0
      vertex 2.07873 -0.861037 3
      vertex 2.07873 -0.861037 0
    endloop
  endfacet
  facet normal -0.896876 0.442283 0
    outer loop
      vertex 2.07873 -0.861037 3
      vertex 1.94856 -1.125 0
      vertex 1.94856 -1.125 3
    endloop
  endfacet
  facet normal 0.0654065 0.997859 -0
    outer loop
      vertex 0 -2.25 0
      vertex -0.293683 -2.23075 3
      vertex 0 -2.25 3
    endloop
  endfacet
  facet normal 0.0654065 0.997859 0
    outer loop
      vertex -0.293683 -2.23075 3
      vertex 0 -2.25 0
      vertex -0.293683 -2.23075 0
    endloop
  endfacet
  facet normal 0.442283 0.896876 -0
    outer loop
      vertex -0.861037 -2.07873 0
      vertex -1.125 -1.94856 3
      vertex -0.861037 -2.07873 3
    endloop
  endfacet
  facet normal 0.442283 0.896876 0
    outer loop
      vertex -1.125 -1.94856 3
      vertex -0.861037 -2.07873 0
      vertex -1.125 -1.94856 0
    endloop
  endfacet
  facet normal 0.946934 0.321427 0
    outer loop
      vertex -2.07873 -0.861037 3
      vertex -2.17333 -0.582342 0
      vertex -2.17333 -0.582342 3
    endloop
  endfacet
  facet normal 0.946934 0.321427 0
    outer loop
      vertex -2.17333 -0.582342 0
      vertex -2.07873 -0.861037 3
      vertex -2.07873 -0.861037 0
    endloop
  endfacet
  facet normal 0.997859 0.0654065 0
    outer loop
      vertex -2.23075 -0.293683 3
      vertex -2.25 0 0
      vertex -2.25 0 3
    endloop
  endfacet
  facet normal 0.997859 0.0654065 0
    outer loop
      vertex -2.25 0 0
      vertex -2.23075 -0.293683 3
      vertex -2.23075 -0.293683 0
    endloop
  endfacet
  facet normal 0.831454 0.555594 0
    outer loop
      vertex -1.78504 -1.36971 3
      vertex -1.94856 -1.125 0
      vertex -1.94856 -1.125 3
    endloop
  endfacet
  facet normal 0.831454 0.555594 0
    outer loop
      vertex -1.94856 -1.125 0
      vertex -1.78504 -1.36971 3
      vertex -1.78504 -1.36971 0
    endloop
  endfacet
  facet normal -0.195097 -0.980784 0
    outer loop
      vertex 0.293683 2.23075 0
      vertex 0.582342 2.17333 3
      vertex 0.293683 2.23075 3
    endloop
  endfacet
  facet normal -0.195097 -0.980784 -0
    outer loop
      vertex 0.582342 2.17333 3
      vertex 0.293683 2.23075 0
      vertex 0.582342 2.17333 0
    endloop
  endfacet
  facet normal 0.980784 -0.195097 0
    outer loop
      vertex -2.23075 0.293683 3
      vertex -2.17333 0.582342 0
      vertex -2.17333 0.582342 3
    endloop
  endfacet
  facet normal 0.980784 -0.195097 0
    outer loop
      vertex -2.17333 0.582342 0
      vertex -2.23075 0.293683 3
      vertex -2.23075 0.293683 0
    endloop
  endfacet
  facet normal -0.980784 0.195097 0
    outer loop
      vertex 2.17333 -0.582342 0
      vertex 2.23075 -0.293683 3
      vertex 2.23075 -0.293683 0
    endloop
  endfacet
  facet normal -0.980784 0.195097 0
    outer loop
      vertex 2.23075 -0.293683 3
      vertex 2.17333 -0.582342 0
      vertex 2.17333 -0.582342 3
    endloop
  endfacet
  facet normal -0.946934 0.321427 0
    outer loop
      vertex 2.07873 -0.861037 0
      vertex 2.17333 -0.582342 3
      vertex 2.17333 -0.582342 0
    endloop
  endfacet
  facet normal -0.946934 0.321427 0
    outer loop
      vertex 2.17333 -0.582342 3
      vertex 2.07873 -0.861037 0
      vertex 2.07873 -0.861037 3
    endloop
  endfacet
  facet normal -0.659332 0.751852 0
    outer loop
      vertex 1.59099 -1.59099 0
      vertex 1.36971 -1.78504 3
      vertex 1.59099 -1.59099 3
    endloop
  endfacet
  facet normal -0.659332 0.751852 0
    outer loop
      vertex 1.36971 -1.78504 3
      vertex 1.59099 -1.59099 0
      vertex 1.36971 -1.78504 0
    endloop
  endfacet
  facet normal -0.831454 0.555594 0
    outer loop
      vertex 1.78504 -1.36971 0
      vertex 1.94856 -1.125 3
      vertex 1.94856 -1.125 0
    endloop
  endfacet
  facet normal -0.831454 0.555594 0
    outer loop
      vertex 1.94856 -1.125 3
      vertex 1.78504 -1.36971 0
      vertex 1.78504 -1.36971 3
    endloop
  endfacet
  facet normal 0.555594 0.831454 -0
    outer loop
      vertex -1.125 -1.94856 0
      vertex -1.36971 -1.78504 3
      vertex -1.125 -1.94856 3
    endloop
  endfacet
  facet normal 0.555594 0.831454 0
    outer loop
      vertex -1.36971 -1.78504 3
      vertex -1.125 -1.94856 0
      vertex -1.36971 -1.78504 0
    endloop
  endfacet
  facet normal 0.751852 0.659332 0
    outer loop
      vertex -1.59099 -1.59099 3
      vertex -1.78504 -1.36971 0
      vertex -1.78504 -1.36971 3
    endloop
  endfacet
  facet normal 0.751852 0.659332 0
    outer loop
      vertex -1.78504 -1.36971 0
      vertex -1.59099 -1.59099 3
      vertex -1.59099 -1.59099 0
    endloop
  endfacet
endsolid OpenSCAD_Model
